<svg width="761" height="76" viewBox="0 0 761 76" fill="none" xmlns="http://www.w3.org/2000/svg">
<path d="M1.9566 56.0199C1.0205 50.9177 0.812474 45.8156 1.12451 40.7134C1.12451 40.1928 1.33253 39.7763 1.43655 39.3598C1.54056 38.5268 2.06062 38.0062 2.89271 37.7979C4.03684 37.4856 5.18097 37.1732 6.22109 36.7567C7.46923 36.4443 8.71738 36.3402 9.96552 36.4443C11.5257 36.6526 13.1899 36.9649 14.7501 37.2773C15.6862 37.3814 16.1022 37.9021 16.3102 38.7351C16.4143 39.1516 16.4143 39.4639 16.4143 39.8804C16.3102 43.1083 16.8303 46.4403 16.9343 49.6682C16.9343 50.9177 17.0383 52.1672 17.3504 53.3126C17.8704 55.4992 19.6386 56.957 21.7189 57.1652C22.759 57.3735 23.5911 56.957 24.2151 56.2281C25.0472 54.9786 25.6713 53.625 25.8793 52.1672C26.3994 48.7311 27.0235 45.295 26.9195 41.7547C26.7114 39.1516 26.5034 36.6526 27.1275 34.0494C27.2315 33.8412 27.2315 33.6329 27.2315 33.3206C26.6074 31.4463 26.9195 29.3638 26.2954 27.3854C25.9834 26.1359 25.8793 24.7823 25.5673 23.5328C25.2553 22.3874 24.6312 21.5544 24.1111 20.6173C23.5911 19.8884 22.863 19.2636 21.9269 19.0554C20.7828 18.743 19.6386 18.4306 18.4945 18.0141C17.8704 17.8059 17.3504 17.8059 16.7263 17.91C14.126 18.4306 11.6297 18.3265 9.02941 18.1183C8.82139 18.1183 8.61337 18.1183 8.40534 18.0141C6.94918 17.5976 4.86894 15.2028 4.86894 13.6409C4.76493 10.9336 4.76493 8.22638 5.389 5.62324C5.70103 4.26962 6.74115 3.43661 7.88528 3.02011C9.54947 2.39536 11.2137 1.87474 13.0859 1.97886C16.3102 2.08299 19.6386 1.97886 22.863 1.97886C23.4871 1.97886 24.1111 1.97886 24.7352 1.87474C28.1676 1.14586 31.6 1.56236 34.9284 1.77061C35.8645 1.77061 36.8006 1.87474 37.7367 1.97886C39.0889 2.08299 40.129 2.70774 40.753 3.85312C41.5851 5.41499 42.1052 6.97687 42.1052 8.747C42.2092 11.8708 42.2092 14.9945 42.2092 18.1183V37.4856C42.1052 42.0671 42.1052 46.6486 42.1052 51.2301C42.0012 53.7291 41.7932 56.2281 41.2731 58.623C40.649 60.8096 40.025 63.1004 39.0889 65.1829C37.9447 67.786 35.8645 69.452 33.6802 70.9098C33.5762 71.118 33.3682 71.2221 33.0562 71.2221C30.8719 71.8469 28.5836 72.5758 26.2954 72.8881C24.0071 73.2005 21.5108 73.2005 19.1186 73.4088C15.0621 73.617 11.7337 72.0551 8.9254 69.2438C7.36522 67.6819 5.80504 66.12 4.5569 64.3499C4.03684 63.5169 3.51678 62.6839 3.30876 61.6426C2.7887 59.7684 2.26864 57.8941 1.9566 56.0199Z" fill="white"/>
<path d="M97.4605 26.0734C97.3565 25.6569 97.2525 25.1363 97.0445 24.7198C96.1083 22.2208 94.6522 19.93 93.092 17.6393C92.1559 16.1815 90.9078 14.932 89.2436 14.3073C88.9939 14.2031 88.7235 14.1198 88.4739 14.0157C87.2673 16.2856 86.04 18.5139 84.7711 20.7422C83.9182 22.3041 83.0653 23.9284 82.4412 25.6361C82.2124 26.4274 81.8171 27.198 81.3595 28.2809C83.6893 27.5103 85.4783 26.8023 87.3297 26.1775C88.8067 25.5528 90.3669 25.0946 91.8439 24.4699C92.3015 24.3241 92.78 24.2408 93.2376 24.2408C93.8617 24.2408 94.4026 24.9488 94.2569 25.4903C94.0905 26.0318 93.9449 26.5732 93.7785 27.0314C92.9256 29.1347 91.5318 30.9256 90.3669 32.7999C88.7443 35.3614 87.1009 38.0061 85.3951 40.5052C84.3134 42.0462 83.2109 43.6914 82.2956 45.2324C79.404 50.0639 76.4501 54.7287 73.8914 59.6225C73.6418 60.1015 73.3713 60.5805 73.1217 61.0595C74.4947 61.476 75.93 61.6426 77.4902 61.476C78.2183 61.3719 79.0504 61.3719 79.7785 61.476C83.4189 61.9966 86.5393 60.5388 89.4516 58.7687C91.0118 57.8316 92.3639 56.478 93.7161 55.2285C94.8602 54.0831 96.0043 52.8336 96.7324 51.3758C97.7725 49.3974 98.5006 47.3149 98.8127 45.0242C99.0207 43.0458 99.2287 41.1716 99.1247 39.5056C99.1247 34.7158 98.7086 30.3425 97.4605 26.0734ZM64.9672 36.6109C66.1321 32.5708 67.2971 28.6765 68.3788 24.6989C69.2317 21.7418 70.0846 18.8679 70.9375 15.8483C71.728 13.3493 72.1856 12.9536 74.8275 12.9536C76.3877 12.9536 77.8647 12.5788 79.4872 12.3497C79.6537 12.308 79.8409 12.2872 80.0281 12.2456C77.6566 12.0165 75.2852 12.5788 72.9137 12.9536C72.4977 13.0577 72.1856 13.1619 71.8736 13.3701C70.0014 14.3073 68.2332 15.2444 66.569 16.3898C63.0326 18.7846 60.7443 22.0125 59.7042 26.1775C58.7681 29.4054 58.248 32.5292 57.832 35.8612C57.4159 38.8808 57.5199 41.9004 58.6641 44.8159C60.3283 48.8768 62.2005 52.8336 65.4248 56.1656C66.5066 57.2485 67.5051 58.3522 68.8572 59.1644C69.2733 57.9774 69.7101 56.7903 70.1678 55.6658C71.0207 53.6458 71.7904 51.5424 72.4144 49.3558C72.8097 48.1271 73.3506 46.7943 73.8914 45.5448C74.5987 43.5248 75.3684 41.5881 76.1381 39.568C75.826 39.0891 75.4516 39.2557 75.1396 39.4014C74.2034 39.7971 73.2049 40.2553 72.1856 40.7342C70.251 41.6714 67.9835 41.9004 65.8825 41.9004H65.2792C64.3431 41.7338 63.8647 41.1091 64.1143 40.1095C64.3431 38.9433 64.6552 37.7771 64.9672 36.6109Z" fill="white"/>
<path d="M110.462 30.9882C109.942 27.0314 109.214 23.1788 107.446 19.5344C106.822 18.2849 105.885 17.0354 105.157 15.7859C103.389 12.2456 100.581 9.53839 97.5645 7.03939C94.7562 4.64451 91.3238 2.97851 87.5794 2.24963C86.4352 1.93725 85.1871 1.52075 83.9389 1.52075C82.2747 1.62488 80.5065 1.62488 78.5303 1.62488C77.0742 1.729 75.306 1.83313 73.4337 1.62488C72.9137 1.52075 72.2896 1.62488 71.8736 1.83313C70.0013 2.66613 67.9211 2.87438 66.0489 3.39501C63.8646 4.01976 62.0964 5.26926 60.4323 6.62289C59.2881 7.45589 58.248 8.49714 57.1039 9.43427C56.0638 10.2673 55.0236 11.1003 54.2956 12.2456C53.1514 13.9117 52.0073 15.5777 51.0712 17.3478C49.095 20.7839 47.8468 24.4283 47.2227 28.2809C46.4947 33.1748 46.1826 38.0687 47.1187 42.8585C47.5348 44.6286 47.9508 46.3987 48.2629 48.1688C48.4709 49.3142 48.8869 50.3555 49.407 51.3967C51.1752 55.3535 53.6715 58.6855 56.5838 61.7051C60.1202 65.4536 64.1767 68.4733 69.1693 70.2434C70.6254 70.8681 72.2896 71.1805 73.8498 71.597C76.4501 72.2218 79.0504 72.43 81.6507 72.0135C82.4828 71.9094 83.4189 71.8053 84.251 71.8053C86.0192 71.9094 87.5793 71.4929 89.2435 71.0764C91.5318 70.5558 93.3 68.9939 95.2762 67.9526C96.3164 67.432 97.3565 66.7031 98.2926 65.8701C100.061 64.2041 101.621 62.3299 103.181 60.5597C104.325 59.3102 105.157 57.9566 106.093 56.603C107.55 54.5205 108.174 52.1256 108.902 49.7307C109.734 47.0235 110.462 44.108 110.462 41.2966C110.566 37.8605 110.774 34.4243 110.462 30.9882ZM72.8929 61.4969C72.6433 61.7259 72.4144 62.0383 72.1024 62.3507C70.8542 63.6002 70.0846 63.6002 68.774 62.434C68.2956 62.0383 68.0667 61.6635 68.2123 61.0387C68.4204 60.414 68.6492 59.7892 68.8572 59.1645C69.2733 57.9774 69.7101 56.7904 70.1678 55.6659C71.0207 53.6458 71.7904 51.5425 72.4144 49.3559C72.8097 48.1272 73.3505 46.7944 73.8914 45.5449C74.5987 43.5249 75.3684 41.5881 76.138 39.5681C75.826 39.0891 75.4516 39.2557 75.1395 39.4015C74.2034 39.7972 73.2049 40.2553 72.1856 40.7343C70.251 41.6714 67.9835 41.9005 65.8825 41.9005H65.2792C64.3431 41.7339 63.8646 41.1092 64.1143 40.1096C64.3431 38.9434 64.6551 37.7772 64.9672 36.611C66.1321 32.5709 67.297 28.6766 68.3788 24.699C69.2317 21.7419 70.0846 18.868 70.9375 15.8484C71.7279 13.3494 72.1856 12.9537 74.8275 12.9537C76.3877 12.9537 77.8646 12.5788 79.4872 12.3498C79.6536 12.3081 79.8409 12.2873 80.0281 12.2456C81.193 12.0374 82.3996 11.8291 83.6893 11.5584C84.6254 11.4126 85.6239 11.1003 86.6432 10.8712C87.2673 10.7046 87.725 10.4755 88.349 10.4755C89.2019 10.3922 89.7428 11.1627 89.5972 12.0374C89.514 12.1832 89.4308 12.3498 89.2851 12.4955C89.0147 13.0162 88.7443 13.516 88.4739 14.0158C87.2673 16.2857 86.04 18.514 84.771 20.7423C83.9181 22.3041 83.0652 23.9285 82.4412 25.6362C82.2123 26.4275 81.8171 27.198 81.3594 28.2809C83.6893 27.5104 85.4783 26.8024 87.3297 26.1776C88.8067 25.5529 90.3669 25.0947 91.8438 24.4699C92.3015 24.3242 92.7799 24.2409 93.2376 24.2409C93.8617 24.2409 94.4025 24.9489 94.2569 25.4904C94.0905 26.0318 93.9449 26.5733 93.7785 27.0314C92.9256 29.1348 91.5318 30.9257 90.3669 32.8C88.7443 35.3614 87.1009 38.0062 85.3951 40.5052C84.3134 42.0463 83.2109 43.6915 82.2956 45.2325C79.404 50.0639 76.4501 54.7287 73.8914 59.6226C73.6418 60.1016 73.3713 60.5806 73.1217 61.0596C73.0385 61.2053 72.9761 61.3511 72.8929 61.4969Z" fill="white"/>
<path d="M146.325 72.8883C144.661 73.6171 142.997 73.6171 141.333 73.0965C140.085 72.7841 138.836 72.4718 137.484 72.4718C132.7 72.3676 128.227 71.2223 124.067 68.8274C123.651 68.6191 123.235 68.3067 122.819 67.8903C121.258 66.4325 119.906 64.6624 118.866 62.684C117.202 59.6644 116.058 56.3324 115.954 52.7921C115.746 48.3147 115.434 43.9414 115.122 39.4641C115.018 36.1321 114.914 32.6959 115.018 29.2598C115.122 26.7608 115.018 24.2618 115.226 21.7628C115.538 17.5978 115.538 13.4328 115.538 9.16363C115.642 7.91412 115.642 6.56049 116.058 5.31099C116.37 4.37387 116.786 3.64499 117.722 3.12436C118.658 2.60374 119.698 2.18724 120.738 2.08311C123.235 1.97899 125.731 2.08311 128.227 2.39549C129.059 2.39549 129.683 2.91611 129.891 3.74911C130.203 4.47799 130.515 5.31099 130.515 6.24812V8.12237L130.099 19.2638C130.099 22.6999 130.203 26.136 130.203 29.5722C130.203 35.0908 130.203 40.7136 130.411 46.3363C130.515 48.0023 130.723 49.7725 131.036 51.4385C131.348 52.8962 131.868 54.2498 132.596 55.4994C133.324 56.7489 134.364 57.4777 135.716 57.7901C138.628 58.3107 141.541 58.2066 144.245 56.9571C146.221 56.1241 147.573 54.4581 148.197 52.3756C149.654 47.7941 149.966 43.0043 149.862 38.3187C149.862 34.4661 149.758 30.7175 149.55 26.8649C149.55 24.2618 149.134 21.7628 149.238 19.1596C149.55 14.474 149.342 9.8925 149.03 5.20687C148.926 3.33261 149.862 2.18724 151.63 1.97899C153.606 1.66661 155.582 1.45836 157.663 1.77073C159.015 1.97899 160.471 1.87486 161.823 1.87486C163.591 1.97899 164.111 2.49961 164.423 4.26974C164.527 4.68624 164.527 5.10274 164.527 5.41512C164.631 8.74712 164.839 11.975 164.423 15.2029C164.319 15.9318 164.215 16.6606 164.319 17.2854C164.319 21.7628 164.111 26.2402 164.215 30.6134C164.319 34.5702 164.111 38.4228 164.111 42.2754C164.111 44.8786 164.215 47.4817 163.695 49.9807C163.279 51.7508 163.279 53.6251 162.863 55.4994C162.551 57.0612 162.031 58.6231 161.407 60.185C160.159 62.8922 158.807 65.4954 157.038 67.8903C156.622 68.4109 156.102 68.9315 155.582 69.348C153.918 70.2851 152.462 71.5346 150.382 71.7429C149.03 71.847 147.573 72.3676 146.325 72.8883Z" fill="white"/>
<path d="M193.235 61.955C192.923 60.6013 192.507 59.2477 191.987 57.8941C191.363 56.0198 190.323 55.1868 188.659 55.2909C186.994 55.3951 185.746 56.4363 185.122 57.8941C184.914 58.5188 184.81 59.1436 184.706 59.7683C184.602 60.9137 184.706 62.0591 184.602 63.2045V69.7644C184.706 70.8056 184.186 71.6386 183.562 72.4716C183.146 73.0964 182.522 73.4087 181.794 73.4087C179.505 73.4087 177.321 73.5129 175.033 73.4087C173.785 73.4087 172.745 72.9922 172.017 71.951L171.393 71.2221C169.936 70.285 169.52 68.8272 169.312 67.2653C169.104 65.8076 169 64.3498 169.104 62.8921L169.312 48.6269H169.416V34.8824C169.416 33.737 169.52 32.5916 169.52 31.4463C169.52 30.7174 169.624 29.9885 169.52 29.2596C169 25.0946 169.312 20.7214 169.208 16.4522C169.104 13.5367 169.208 10.6212 169.104 7.60159C169.104 6.76859 169.312 6.03971 169.624 5.20671C170.248 3.33245 171.393 2.2912 173.265 1.8747C175.137 1.56232 177.009 1.24995 178.985 1.24995C180.442 1.24995 181.794 1.24995 183.146 1.14582C186.578 0.937573 189.907 0.937573 193.235 1.35407C193.755 1.4582 194.379 1.4582 195.003 1.4582C197.187 1.4582 199.164 1.8747 201.036 3.02008C202.18 3.64483 203.428 4.06133 204.676 4.68608C206.861 5.72733 208.317 7.39334 209.669 9.37172C211.333 11.8707 212.477 14.6821 212.789 17.8059C213.309 21.9709 213.621 26.24 213.621 30.5091C213.517 33.4246 212.997 36.236 211.645 38.8392C210.605 40.9217 209.565 43.0042 208.109 44.8784C207.069 46.232 206.757 47.7939 206.965 49.4599C207.381 51.9589 208.317 54.3538 209.773 56.3322C210.397 57.3734 211.333 58.2064 212.581 58.7271C215.182 59.6642 216.014 61.5385 215.91 64.1416C215.806 65.9117 215.91 67.786 216.014 69.5561C216.014 70.7015 215.91 71.8468 215.494 72.9922C215.286 73.7211 214.766 74.1376 214.037 74.2417C212.373 74.45 210.605 74.7624 208.941 74.5541C206.653 74.1376 204.364 74.0335 202.18 72.9922C200.412 72.1592 198.956 70.8056 197.604 69.452C195.315 67.3695 193.859 64.9746 193.235 61.955ZM196.979 29.2596C198.02 25.9276 198.332 22.5956 196.459 19.3677C195.939 18.5347 195.315 17.91 194.483 17.4935C192.507 16.5564 190.531 16.244 188.346 16.8687C187.41 17.1811 186.682 17.5976 186.266 18.5347C185.434 20.6172 184.706 22.5956 185.018 24.8864C185.122 25.6153 185.018 26.24 185.018 26.9689C185.018 28.2184 185.122 29.4679 185.018 30.7174C184.81 32.2793 185.642 33.3205 186.474 34.4659L187.41 35.2989C188.659 36.4443 189.491 36.5484 190.947 35.7154C191.883 35.1948 192.819 34.4659 193.755 33.737C195.315 32.5916 196.459 31.1339 196.979 29.2596Z" fill="white"/>
<path d="M271.348 4.79033C271.764 5.93571 271.868 6.97696 271.764 8.22647C271.556 11.0378 270.932 13.9534 271.036 16.7647V19.7844C271.036 20.4091 271.14 20.9297 271.036 21.4504C270.516 25.1989 270.828 28.9474 270.62 32.6959L270.308 37.0692C269.996 40.4012 270.308 43.7332 270.308 47.0652C270.204 50.0848 270.308 53.0003 270.308 55.9158C270.308 59.6643 270.204 63.4128 270.204 67.1613C270.204 68.3067 270.204 69.348 269.788 70.3892C269.06 71.9511 268.228 72.5759 266.563 72.5759C265.107 72.4717 263.755 72.4717 262.403 72.4717C261.571 72.4717 261.051 72.2635 260.427 71.847C258.554 70.5975 257.098 68.8273 255.538 67.2655C254.602 66.4325 254.186 65.183 253.562 64.0376C251.898 61.3303 250.233 58.6231 248.673 55.9158L247.737 54.2498C247.217 52.7921 246.385 51.5426 245.449 50.2931C244.513 49.0436 243.785 47.5858 243.057 46.2322L241.913 44.2538C240.976 42.796 238.896 42.5878 237.752 43.9414C237.44 44.3579 237.128 44.8785 237.024 45.3992C236.4 47.1693 235.984 48.9394 235.984 50.9178C236.088 53.8333 236.296 56.7488 235.984 59.352L236.192 65.5995V69.7645C236.192 70.5975 235.88 71.2222 235.568 71.9511C235.256 72.4717 234.84 72.7841 234.32 72.9924C233.592 73.2006 232.864 73.4089 232.031 73.3047C229.951 73.3047 227.871 73.2006 225.791 73.3047C224.022 73.3047 223.086 72.2635 222.046 71.1181C221.838 70.9098 221.838 70.4933 221.734 70.0768C221.63 68.9315 221.526 67.7861 221.526 66.5366C221.526 64.6623 221.318 62.684 221.318 60.8097C221.422 56.4364 221.63 52.0632 221.63 47.6899C221.63 43.4208 221.63 39.1517 221.526 34.8825C221.526 33.633 221.318 32.3835 221.11 31.134C220.382 26.8649 220.382 22.4916 220.59 18.1184C220.694 17.4936 220.694 16.7647 220.59 16.0359C220.174 13.2245 220.382 10.5172 220.382 7.70584C220.486 6.03984 221.214 4.68621 222.046 3.4367C222.358 3.0202 222.774 2.70783 223.086 2.49958C225.583 1.66658 228.079 1.04182 230.679 1.7707C232.551 2.1872 234.008 3.12433 235.152 4.79033C237.024 7.28934 238.584 9.89247 240.04 12.7038C240.872 14.0575 241.913 15.307 242.745 16.7647C244.409 19.472 246.177 22.0751 247.945 24.6782C248.673 25.7195 249.505 26.6566 250.442 27.5938C250.858 28.0103 251.378 28.3226 252.002 28.5309C253.146 29.0515 254.394 28.635 254.706 27.3855C255.434 25.0948 255.85 22.804 255.642 20.5132C255.434 18.7431 255.434 16.973 255.642 15.0987C255.954 12.5997 255.538 9.99659 255.538 7.49759L255.33 5.83158C255.33 4.06146 255.954 3.12433 257.514 2.39545C259.075 1.7707 260.739 1.66658 262.403 1.66658C264.483 1.66658 266.563 1.87483 268.644 2.29133C270.1 2.49958 270.932 3.4367 271.348 4.79033Z" fill="white"/>
<path d="M281.749 72.7842C279.876 72.7842 278.316 72.0553 277.588 70.181C276.964 68.7233 276.444 67.2655 276.548 65.5995C276.548 63.6211 276.548 61.5386 276.652 59.5602C276.756 56.9571 276.86 54.4581 276.652 51.855C276.34 49.1477 276.444 46.4405 276.548 43.7332V28.3227C276.548 26.1361 276.548 23.9494 276.444 21.8669C276.236 19.0555 276.132 16.2442 276.34 13.4328C276.548 12.1833 276.444 10.9338 276.444 9.68427C276.444 8.43476 276.756 7.08114 277.172 5.83163C278.108 3.2285 280.084 2.08312 282.685 1.979C285.077 1.87487 287.573 1.979 289.966 1.979C291.422 1.979 292.878 1.979 294.334 1.77075C295.478 1.66662 296.726 1.66662 297.87 1.87487C298.494 1.979 299.119 1.979 299.743 1.979L314.096 1.35425H315.552C317.425 1.35425 318.569 2.29138 319.193 3.95738C319.193 4.0615 319.297 4.16563 319.297 4.16563C320.025 7.39351 320.129 10.6214 319.297 13.8493C318.985 15.0988 318.257 15.7235 317.113 16.14C315.968 16.5565 314.824 16.8689 313.576 16.7648C310.04 16.7648 306.607 16.973 303.071 16.5565C301.095 16.3483 299.119 16.5565 297.35 17.0772C295.27 17.7019 293.606 19.0555 293.294 21.4504C293.086 22.4917 293.19 23.4288 293.294 24.47C293.606 26.0319 294.438 27.1773 295.998 27.5938C298.078 28.2186 300.055 28.8433 302.239 28.6351C303.695 28.6351 305.151 28.6351 306.607 28.5309C307.752 28.5309 308.896 28.6351 310.04 28.9474C312.12 29.5722 313.368 30.8217 313.472 32.9042C313.576 35.1949 313.576 37.4857 313.264 39.8806C313.056 41.9631 312.016 43.0043 309.936 43.4208C307.544 43.9415 305.151 44.1497 302.759 44.0456C300.367 43.9415 298.182 44.5662 295.894 45.2951C294.958 45.6075 294.438 46.3363 293.918 47.1693C293.086 49.0436 292.982 51.1261 293.086 53.1045C293.19 54.6664 294.75 56.02 296.206 56.1241C297.038 56.1241 297.87 56.3324 298.703 56.4365C299.951 56.7489 301.199 56.7489 302.447 56.6447C304.111 56.4365 305.879 56.4365 307.544 56.5406C309.312 56.6447 311.184 56.5406 312.952 56.5406C313.888 56.5406 314.824 56.6447 315.76 56.6447C318.049 56.6447 319.401 57.9984 320.337 59.9767C321.481 62.684 321.169 65.4954 320.649 68.2026C320.545 68.7233 320.337 69.1398 320.233 69.5563C320.025 70.3893 319.609 71.014 318.881 71.4305C318.569 71.6388 318.257 71.847 317.945 72.1594C317.425 72.7841 316.697 72.9924 315.864 72.9924C313.368 73.2007 310.768 73.7213 308.272 73.0965C307.856 72.9924 307.335 73.2007 306.815 73.2007C306.087 73.2007 305.255 73.3048 304.527 73.2007C301.095 72.5759 297.558 72.7841 294.126 73.2007C291.526 73.513 289.029 73.513 286.429 73.3048C284.869 73.0965 283.309 72.8883 281.749 72.7842Z" fill="white"/>
<path d="M352.061 16.3482C353.205 16.244 354.141 15.9317 354.973 14.8904C355.701 13.9533 356.533 13.1203 357.053 12.079L360.486 5.72739C360.798 5.20676 361.214 4.58201 361.734 4.06138C362.982 2.60363 364.542 1.6665 366.518 1.6665C368.182 1.6665 369.847 1.6665 371.407 1.97888C372.447 2.18713 373.383 2.18713 374.423 2.18713C375.359 2.18713 376.295 2.29126 377.127 2.49951C378.584 2.81188 379 3.43663 379 4.79026C379 5.62326 378.792 6.35214 378.584 7.08102C377.856 9.4759 376.503 11.5584 375.151 13.6409C374.111 15.5152 372.863 17.1812 371.719 18.9513C370.679 20.6173 369.639 22.3874 368.495 24.0534C366.83 26.4483 365.27 28.9473 363.71 31.4463C361.318 35.6113 359.966 39.9846 360.07 44.7743C360.174 49.1476 360.486 53.4167 360.278 57.79V63.4128C360.278 64.9746 360.07 67.1613 360.07 69.452C359.966 70.285 359.758 70.9098 359.029 71.4304L358.093 72.4716C357.885 72.784 357.469 72.9923 357.157 72.9923C355.597 73.0964 354.037 73.5129 352.477 73.0964C352.373 72.9923 352.269 72.9923 352.165 72.9923C352.061 72.9923 352.061 72.9923 351.957 73.0964C350.396 73.5129 348.836 73.0964 347.276 72.9923C346.964 72.9923 346.548 72.784 346.34 72.4716L345.404 71.4304C344.676 70.9098 344.468 70.285 344.364 69.452C344.364 67.1613 344.156 64.9746 344.156 63.4128V57.79C343.948 53.4167 344.26 49.1476 344.364 44.7743C344.468 39.9846 343.116 35.6113 340.723 31.4463C339.163 28.9473 337.603 26.4483 335.939 24.0534C334.795 22.3874 333.755 20.6173 332.714 18.9513C331.57 17.1812 330.322 15.5152 329.282 13.6409C327.93 11.5584 326.578 9.4759 325.85 7.08102C325.642 6.35214 325.434 5.62326 325.434 4.79026C325.434 3.43663 325.85 2.81188 327.306 2.49951C328.138 2.29126 329.074 2.18713 330.01 2.18713C331.05 2.18713 331.986 2.18713 333.026 1.97888C334.587 1.6665 336.251 1.6665 337.915 1.6665C339.891 1.6665 341.451 2.60363 342.7 4.06138C343.22 4.58201 343.636 5.20676 343.948 5.72739L347.38 12.079C347.9 13.1203 348.732 13.9533 349.46 14.8904C350.188 15.8275 351.02 16.244 352.061 16.3482Z" fill="white"/>
<path d="M399.102 68.3474C399.31 69.3887 399.102 70.2217 398.894 71.1588C398.686 72.2001 398.062 72.8248 397.126 73.0331C396.19 73.3454 395.253 73.4496 394.317 73.4496C392.133 73.4496 389.845 73.5537 387.557 73.5537C386.828 73.5537 386.204 73.3454 385.58 73.1372C384.332 72.8248 383.812 72.0959 383.604 70.8464C383.5 70.2217 383.5 69.4928 383.5 68.7639C383.396 63.2453 383.396 57.7267 383.396 52.208H383.604C383.604 47.1059 383.396 42.0038 383.604 36.9016C383.812 33.6737 383.604 30.3417 383.5 27.1138C383.5 22.8447 383.396 18.5756 383.292 14.3064C383.292 13.9941 383.396 13.6817 383.292 13.3693C382.772 11.2868 383.084 9.20431 383.188 7.12181C383.188 6.18468 383.084 5.24755 383.084 4.31042C383.084 2.85267 383.292 2.43617 384.748 2.33204C385.788 2.22792 386.828 1.81142 387.869 1.81142C389.845 1.91554 391.717 1.81142 393.693 1.81142C394.525 1.91554 395.357 2.33205 396.19 2.5403C397.438 2.85267 398.062 3.7898 398.27 5.0393C398.374 5.87231 398.374 6.91356 398.27 7.74656L397.542 27.3221C397.542 29.9252 397.75 32.5284 398.582 34.9232C399.206 36.7975 400.35 38.047 402.326 38.6717C404.302 39.1924 406.279 39.4006 408.359 39.4006C409.503 39.4006 410.439 38.88 411.271 38.1511C413.559 35.9645 414.6 33.3614 414.808 30.3417C414.808 29.3005 414.912 28.2592 415.016 27.3221C415.224 25.8643 415.328 24.3025 415.016 22.8447C414.704 20.9705 414.704 18.9921 414.704 17.1178C414.6 14.7229 414.184 12.3281 414.288 9.82906C414.288 8.05893 414.392 6.18468 414.288 4.31042C414.288 3.16505 414.912 2.54029 415.848 2.22792C416.472 2.01967 417.2 1.81142 417.824 1.70729C419.384 1.60317 420.944 1.60317 422.505 1.91555C423.337 2.1238 424.169 2.1238 425.001 2.1238C425.833 2.1238 426.561 2.22792 427.393 2.33204C428.641 2.54029 429.473 3.26917 429.889 4.41455C430.201 5.35167 430.513 6.18468 430.513 7.12181C430.617 9.20431 430.721 11.3909 430.409 13.4734C429.993 16.1807 429.681 18.9921 429.369 21.8035C428.953 24.4066 428.953 27.218 428.953 29.9252C428.953 34.5067 429.161 39.0882 429.265 43.6698L429.577 46.8976C429.889 50.2296 429.889 53.5616 429.785 56.8937C429.785 59.0803 429.889 61.2669 429.889 63.4535C429.993 66.0567 429.577 68.6598 428.641 71.1588C428.329 71.9918 427.913 72.5124 427.081 72.7207C426.353 72.8248 425.729 73.1372 425.001 73.2413C423.753 73.4496 422.505 73.3454 421.36 73.9702C419.176 73.9702 416.992 73.8661 415.016 72.8248C414.288 72.4083 413.872 71.7836 413.768 70.7423C413.663 68.2433 413.559 65.6402 413.351 63.1412C413.247 61.6834 413.039 60.3298 412.831 58.9762C412.727 57.7267 411.999 56.9978 410.751 56.8937C410.023 56.8937 409.295 56.7895 408.671 56.7895C407.735 56.8937 406.799 56.9978 405.863 56.7895C404.718 56.5813 403.678 56.9978 402.742 57.4143C402.014 57.7267 401.39 58.2473 401.078 58.9762C399.518 61.8917 398.686 65.0154 399.102 68.3474Z" fill="white"/>
<path d="M447.052 74.2826L437.691 73.5537C435.818 73.3455 434.778 71.6795 434.986 69.7011C435.194 66.8897 436.234 64.1824 436.754 61.3711C437.482 57.7267 438.731 54.1864 439.667 50.542C439.771 49.8132 439.979 49.0843 440.187 48.2513C440.499 46.6894 440.811 45.1275 441.747 43.6698C442.059 43.1491 442.267 42.5244 442.475 42.0038L445.075 33.9861C445.491 32.7366 445.699 31.2789 445.907 29.9252C446.844 25.3437 447.78 20.7622 449.548 16.389C450.796 13.057 451.628 9.62083 452.46 6.1847C452.98 4.20632 453.916 2.95682 455.893 2.54032C460.573 1.39494 465.254 0.978435 469.934 1.60319C472.222 1.91556 473.679 3.16507 474.615 5.14345C475.031 5.97645 475.343 7.0177 475.551 7.95482C476.279 10.8703 477.007 13.89 477.527 16.8055C477.839 18.3673 477.839 19.9292 478.047 21.4911C478.463 24.3025 478.775 27.1139 479.503 29.9252C480.023 31.5912 480.127 33.2572 480.335 35.0274C480.439 36.381 480.855 37.7346 481.063 39.0883L481.896 43.2533C482.104 44.711 482.312 46.1688 482.832 47.5224C483.664 50.3338 484.08 53.3534 484.6 56.1648C485.12 58.7679 485.64 61.2669 486.056 63.7659C486.368 65.7443 486.472 67.8268 486.68 69.8052V70.2217C486.576 72.096 485.848 73.0331 484.08 73.3455C482.208 73.5537 480.335 74.0743 478.671 73.8661C477.215 73.9702 475.863 73.8661 474.615 73.5537C473.679 73.4496 472.951 73.0331 472.43 72.4083C471.494 71.2629 470.558 70.2217 470.246 68.8681C469.934 67.4103 469.518 66.1608 469.31 64.7031C468.998 63.4536 468.27 62.8288 467.022 62.7247C464.734 62.5164 462.445 62.4123 460.053 62.4123C458.909 62.4123 457.661 62.6206 456.413 62.8288C454.436 63.1412 452.98 64.1824 452.252 66.0567C451.732 67.4103 451.212 68.6598 450.796 70.0135C450.38 71.263 449.756 72.2001 449.028 73.2413C448.508 73.9702 447.78 74.2826 447.052 74.2826ZM459.637 43.7739C460.885 44.2945 462.029 44.2945 463.277 43.878C464.63 43.3574 465.462 42.4203 465.566 41.0666C465.774 39.8171 465.566 38.7759 465.358 37.6305C464.942 35.548 464.006 33.5696 464.006 31.4871C464.006 30.6541 463.693 29.8211 463.381 28.9881C463.173 28.2592 462.653 28.051 462.029 28.4675C461.093 28.9881 460.573 29.8211 460.261 30.8624C459.741 33.2572 459.117 35.6521 458.493 38.047C458.285 39.0883 458.181 40.1295 458.077 40.9625C458.077 42.7327 458.285 43.1491 459.637 43.7739Z" fill="white"/>
<path d="M534.942 11.4952C536.294 13.9942 536.502 16.4932 535.566 19.0963C534.942 20.6582 533.798 21.6994 532.341 22.4283C531.509 22.8448 530.677 23.1572 529.845 23.6778C528.597 24.4067 527.349 24.4067 525.893 23.5737C524.125 22.5324 522.772 20.8664 521.42 19.3046C520.38 18.0551 519.028 17.2221 517.468 16.5973C516.116 16.0767 514.659 16.1808 513.411 16.5973C511.123 17.4303 509.043 18.8881 507.795 20.9706C506.755 22.7407 505.818 24.7191 505.506 26.8016C504.882 30.3418 504.466 33.8821 504.57 37.943C504.778 40.1296 504.57 42.941 505.09 45.6483C505.298 46.4813 505.402 47.4184 505.818 48.3555C506.651 50.438 507.587 52.6246 508.627 54.7071C509.875 57.102 511.955 58.1433 514.243 58.768C515.596 59.0804 516.948 58.5598 517.988 57.7268C519.756 56.269 521.524 54.7071 522.876 52.8329C524.125 51.3751 525.477 50.3339 527.453 50.6463C528.909 50.8545 530.261 51.6875 531.197 52.8329L534.526 56.9979C535.462 58.0392 535.67 59.2887 535.046 60.5382C533.694 63.1413 532.758 65.8485 530.053 67.7228C528.805 68.5558 527.661 69.8053 526.413 70.8465C523.396 73.2414 519.964 74.0744 516.22 74.3868C515.804 74.3868 515.492 74.2827 515.075 74.1786C513.411 73.9703 511.747 73.5538 510.083 73.4497C508.003 73.1373 506.234 72.2002 504.57 70.9507C501.45 68.6599 498.642 66.0568 496.249 62.933C495.105 61.4753 494.377 59.7052 493.649 57.935C492.921 56.1649 492.193 54.1865 491.881 52.2081C491.673 50.9586 491.153 49.7091 490.945 48.3555C490.529 46.5854 490.321 44.7111 490.113 42.8369C489.801 40.3379 489.593 37.943 489.385 35.444C489.281 34.1945 489.385 32.945 489.593 31.6955C489.905 30.5501 489.593 29.3006 489.801 28.0511C490.113 26.4892 490.425 24.9273 490.945 23.4696C491.777 21.5953 492.505 19.6169 493.233 17.6386C493.337 17.3262 493.545 17.1179 493.545 16.8056C493.857 14.9313 494.793 13.2653 495.729 11.7034C496.873 9.82917 498.122 8.05904 499.89 6.80954C501.034 5.97654 501.866 4.93529 503.01 4.20641C504.986 2.74866 507.275 1.81153 509.875 1.91566C511.019 2.01978 512.059 1.91565 513.099 1.7074C514.763 1.2909 516.324 1.08266 517.988 1.39503C518.612 1.49916 519.236 1.39503 519.86 1.39503C520.796 1.39503 521.732 1.60328 522.564 2.01978C522.876 2.22803 523.188 2.43628 523.604 2.54041C525.997 2.95691 527.869 4.51879 529.949 5.66417C530.157 5.76829 530.469 5.87242 530.573 6.08067C531.925 7.95492 533.798 9.41267 534.942 11.4952Z" fill="white"/>
<path d="M586.22 61.7877C586.22 64.3908 586.219 66.9939 586.115 69.4929C586.115 70.1177 585.907 70.7424 585.699 71.2631C585.179 72.7208 584.139 73.5538 582.683 73.4497C580.603 73.2414 578.523 73.4497 576.442 73.1373C574.362 72.8249 572.49 72.0961 571.034 70.6383C569.37 69.1805 567.809 67.6187 566.561 65.8486C565.729 64.8073 565.105 63.4537 564.481 62.2042C563.649 60.434 563.025 58.6639 562.505 56.7896C562.193 55.436 561.673 54.0824 561.153 52.8329C560.945 52.104 560.529 51.5834 559.8 51.3751C558.136 50.7504 557.304 51.1669 557.304 52.937C557.304 57.6227 556.576 62.2042 556.888 66.8898C556.888 68.0352 556.888 69.0764 556.784 70.2218C556.68 71.8878 555.952 72.8249 554.184 73.2414C553.352 73.4497 552.52 73.5538 551.584 73.4497C550.023 73.3456 548.359 73.1373 546.695 73.1373C545.759 73.0332 545.031 72.7208 544.407 72.2002C543.679 71.5754 543.055 70.9507 542.43 70.2218C542.014 69.9094 541.91 69.2847 541.806 68.764C541.702 68.0352 541.598 67.2022 541.598 66.4733V54.3948H541.39C541.39 50.438 541.494 46.3771 541.39 42.4204C541.39 40.6502 541.182 38.8801 540.974 37.11C540.454 32.5285 540.558 27.8428 540.558 23.1572C540.558 21.0747 540.87 18.9922 540.974 16.9097C541.182 13.4736 541.598 10.0374 541.494 6.60131C541.39 5.45593 541.702 4.41468 542.743 3.58168C543.575 2.8528 544.199 2.54042 545.239 2.85279C546.175 3.16517 547.215 3.06105 548.255 3.06105C550.127 2.8528 552 2.85279 553.872 2.85279C555.536 2.85279 556.264 3.37342 556.68 4.9353C557.408 7.33018 557.824 9.82919 557.408 12.3282C556.992 15.452 557.408 18.5757 557.824 21.5953C557.824 21.9077 557.928 22.2201 558.032 22.5325C558.448 23.0531 559.28 23.2613 559.904 22.8448C561.257 22.116 562.401 21.1788 563.129 19.7211C565.001 16.285 566.145 12.7447 567.289 9.10031C567.809 7.33018 568.433 5.66418 568.954 3.99818C569.162 3.06105 569.786 2.43629 570.722 2.33217C573.322 1.81154 576.026 1.08267 578.731 1.81154C579.563 2.01979 580.499 1.91567 581.331 1.91567C582.163 1.91567 582.995 2.12392 583.827 2.4363C585.179 2.95693 585.699 3.99817 585.699 5.3518C585.699 8.68381 585.387 11.9117 584.139 15.1396L580.603 23.782C579.979 25.448 578.939 26.9057 577.899 28.3635C576.338 30.6542 574.882 33.0491 573.426 35.444C572.49 37.11 572.802 40.1296 574.05 41.3791C576.234 43.774 577.274 46.6895 578.107 49.7091L579.875 55.0195C580.187 56.1649 580.811 57.102 582.163 57.3103C582.891 57.5185 583.515 58.0392 584.243 58.4557C585.595 59.0804 586.22 60.3299 586.22 61.7877Z" fill="white"/>
<path d="M592.356 64.9113C591.316 63.6618 590.9 62.3082 591.108 60.8504C591.212 59.7051 591.42 58.6638 592.044 57.7267C592.98 56.2689 593.917 54.9153 595.061 53.5617C595.997 52.208 598.389 51.6874 599.845 52.4163L604.942 55.2277C607.438 56.5813 609.934 57.8308 612.639 58.6638C613.887 58.9762 615.031 58.8721 616.279 58.3514C617.631 57.8308 618.255 56.6854 618.775 55.54C619.815 53.3534 619.711 51.2709 618.463 49.2925C618.047 48.5637 617.423 47.9389 616.695 47.4183C615.447 46.377 613.991 45.6482 612.431 45.0234C610.35 44.2945 608.166 43.6698 605.982 43.1492C605.566 43.1492 605.15 43.045 604.838 42.8368C600.781 40.7543 597.037 38.1511 593.917 34.715C592.668 33.4655 591.524 32.1119 590.588 30.55C589.236 28.1551 589.132 25.552 588.924 22.8447C588.716 18.3674 590.588 14.723 593.396 11.4951C594.541 10.1415 595.893 8.89196 596.933 7.4342C598.285 5.7682 599.949 4.72695 601.821 3.89394C605.15 2.33207 608.686 1.49907 612.327 1.60319C612.951 1.60319 613.471 1.49907 613.991 1.39494C616.383 1.08257 618.567 1.39494 620.752 2.22794C623.56 3.26919 626.056 4.5187 628.448 6.08058C631.257 7.85071 633.337 10.2456 634.273 13.3693C634.585 14.3065 634.793 15.3477 634.793 16.389C634.897 17.6385 634.481 18.6797 633.857 19.6169C632.713 21.2829 631.465 22.7406 630.009 23.9901C628.136 25.552 626.784 25.4479 625.328 24.4066C624.808 24.0942 624.392 23.6777 623.872 23.2612C622.104 21.6994 620.44 20.1375 618.671 18.6797C618.255 18.2632 617.839 17.9508 617.319 17.7426C615.343 17.1178 613.367 16.2849 611.182 16.4931H610.246C607.334 17.0137 604.63 21.4911 605.67 24.4066C605.878 24.9272 606.19 25.3437 606.502 25.7602C607.75 27.0097 609.102 27.9469 610.87 28.4675C613.783 29.1964 616.487 30.55 619.295 31.4871C621.376 32.216 623.248 33.2573 624.808 34.6109C626.368 35.9645 627.928 37.6305 629.177 39.4006C629.801 40.2336 630.321 41.0666 630.841 41.8996C631.985 43.5656 632.713 45.4399 633.441 47.3142C634.585 50.8544 634.689 54.3947 634.273 57.9349C633.857 61.5793 632.609 64.9113 630.321 67.7227C628.865 69.4928 627.096 70.8465 625.12 71.9918C622.104 73.6578 618.775 74.0743 615.447 74.0743C612.015 74.1785 608.686 73.6578 605.358 72.6166C603.278 71.8877 601.301 71.1588 599.325 70.2217C596.621 68.8681 594.333 67.0979 592.356 64.9113Z" fill="white"/>
<path d="M693.663 32.9657C693.247 32.1535 692.706 31.4455 691.708 31.3205C691.583 31.3414 691.521 31.2372 691.437 31.2164C690.543 30.904 689.794 31.1539 689.212 31.7995C688.671 32.4034 688.296 33.1323 687.922 33.8612C687.672 34.4026 687.547 34.9233 687.506 35.4855C687.443 37.7763 687.61 40.0671 687.901 42.337C687.963 42.9826 688.171 43.5865 688.276 44.2112C688.338 44.9401 688.608 45.5649 688.879 46.2313C688.983 46.5645 689.191 46.856 689.336 47.1892C689.711 47.8556 690.418 48.043 691.042 48.3762C691.874 48.8344 692.582 48.6678 693.268 48.0847C693.372 48.0014 693.539 47.8556 693.643 47.6682C693.913 47.2933 694.183 46.8768 694.495 46.5228C694.766 46.148 694.849 45.7523 694.932 45.2733C695.182 44.2112 695.14 43.1283 695.244 42.0454C695.39 40.8584 695.286 39.6714 695.244 38.4844C695.078 36.5268 694.495 34.715 693.663 32.9657ZM693.663 32.9657C693.247 32.1535 692.706 31.4455 691.708 31.3205C691.583 31.3414 691.521 31.2372 691.437 31.2164C690.543 30.904 689.794 31.1539 689.212 31.7995C688.671 32.4034 688.296 33.1323 687.922 33.8612C687.672 34.4026 687.547 34.9233 687.506 35.4855C687.443 37.7763 687.61 40.0671 687.901 42.337C687.963 42.9826 688.171 43.5865 688.276 44.2112C688.338 44.9401 688.608 45.5649 688.879 46.2313C688.983 46.5645 689.191 46.856 689.336 47.1892C689.711 47.8556 690.418 48.043 691.042 48.3762C691.874 48.8344 692.582 48.6678 693.268 48.0847C693.372 48.0014 693.539 47.8556 693.643 47.6682C693.913 47.2933 694.183 46.8768 694.495 46.5228C694.766 46.148 694.849 45.7523 694.932 45.2733C695.182 44.2112 695.14 43.1283 695.244 42.0454C695.39 40.8584 695.286 39.6714 695.244 38.4844C695.078 36.5268 694.495 34.715 693.663 32.9657ZM757.714 21.8243C756.091 8.35051 743.963 -1.31231 730.504 0.145446L663.708 7.28844C650.186 8.74619 640.368 20.8247 641.699 34.361L643.571 53.291C644.903 66.8689 656.947 76.8024 670.51 75.5321L737.806 69.2013C751.66 67.8893 761.708 55.4151 760.064 41.5873L757.714 21.8243ZM679.455 54.9986C679.268 55.4151 678.977 55.6442 678.519 55.7691C677.333 56.0399 676.148 56.2273 674.692 56.2689C674.005 56.2481 673.007 56.3939 672.05 56.3731C671.405 56.3939 670.739 56.6021 670.053 56.7687C668.222 57.2061 666.391 57.3935 664.54 57.5185C664.29 57.5393 664.02 57.5184 663.75 57.4976C663.396 57.4768 663.125 57.331 662.959 56.9978C662.813 56.7479 662.626 56.5605 662.314 56.4564C661.856 56.3314 661.669 55.9566 661.628 55.5192C661.524 54.832 661.378 54.1656 661.461 53.4992C661.503 52.5413 661.503 51.625 661.648 50.7087C661.752 49.9173 661.94 49.1676 662.189 48.4387C662.439 47.5849 663.042 46.9393 663.604 46.2729C664.582 45.1484 665.538 44.0238 666.454 42.8576C666.849 42.3786 667.224 41.9205 667.681 41.504C669.033 40.1712 670.053 38.6093 670.822 36.9433C671.259 36.027 671.176 35.0482 671.01 34.0694C670.989 33.8195 670.802 33.6946 670.531 33.6738C669.637 33.4447 668.846 33.7779 668.222 34.361C667.536 34.9857 666.87 35.6938 666.412 36.5476C666.1 37.1724 665.747 37.818 665.372 38.4219C664.873 39.1508 664.186 39.3174 663.417 39.1924C663.292 39.2132 663.105 39.1299 663.001 39.0258C662.065 38.4219 661.253 37.7555 660.359 37.0891C659.568 36.5476 659.423 35.7771 659.61 34.9025C659.943 33.3614 660.816 32.0911 661.856 31.0082C662.21 30.5917 662.605 30.196 663.001 29.8211C663.479 29.2589 664.041 28.8632 664.665 28.5092C665.539 28.051 666.371 27.6137 667.348 27.4887C667.577 27.4263 667.827 27.4054 667.993 27.3013C669.533 26.6141 672.528 27.2597 673.693 28.2384C673.943 28.4259 674.192 28.53 674.463 28.6966C675.149 29.1131 675.711 29.6337 676.21 30.2793C677.375 31.7787 677.833 33.4655 677.937 35.3189C677.958 35.5688 677.895 35.8812 677.874 36.1728C677.645 37.9221 677.021 39.5881 676.106 41.1291C675.607 42.0038 675.087 42.9201 674.608 43.8156C674.047 44.8152 673.298 45.669 672.632 46.5436C672.486 46.7311 672.32 46.9601 672.133 47.1476C671.613 47.6682 671.509 48.3346 671.509 49.0218C671.53 49.3134 671.634 49.4383 671.946 49.5425C672.299 49.6466 672.653 49.6258 673.027 49.6258C674.067 49.5841 675.128 49.48 676.148 49.4383C676.501 49.4592 676.813 49.4175 677.146 49.4175C678.353 49.5424 679.06 50.1672 679.206 51.3959C679.31 51.9998 679.455 52.6037 679.497 53.1868C679.663 53.8532 679.622 54.4363 679.455 54.9986ZM701.298 44.6486C701.339 45.1692 701.256 45.6898 701.152 46.1896C700.986 47.1892 700.778 48.168 700.424 49.1051C700.029 50.3546 699.28 51.3542 698.281 52.2289C698.136 52.3747 697.969 52.5204 697.803 52.7079C697.096 53.4992 696.222 54.1031 695.182 54.4155C694.454 54.5613 693.788 54.7071 693.102 54.8945L692.873 54.9153C691.916 54.9153 690.98 54.8528 690.044 54.6446C689.17 54.4155 688.317 54.0823 687.464 53.7908C687.194 53.6866 686.944 53.5825 686.715 53.3951C685.779 52.6454 684.843 51.8332 684.032 50.8961C683.928 50.8128 683.845 50.7295 683.782 50.6045C683.262 49.5424 682.596 48.4596 682.243 47.2725C682.056 46.6478 681.868 45.9605 681.827 45.315C681.619 43.5657 681.203 41.858 681.099 40.1295C681.057 39.0258 680.911 37.9429 680.995 36.86C681.036 36.027 681.099 35.1523 681.39 34.4026C681.452 34.1736 681.536 33.9445 681.556 33.7154C681.806 32.2368 682.305 30.7999 682.888 29.4046C683.304 28.5508 683.657 27.6762 684.323 26.9681C684.406 26.864 684.51 26.6974 684.635 26.6349C685.446 26.0726 686.258 25.4895 687.298 25.4062L691.458 25.0314C692.103 24.9273 693.351 25.1147 693.996 25.4062C694.995 25.8852 695.972 26.3225 696.742 27.1139C697.366 27.8011 698.032 28.4675 698.406 29.363C698.51 29.5712 698.614 29.8211 698.76 30.0294C699.696 31.383 700.133 32.9449 700.424 34.5068C700.715 36.0478 700.944 37.5681 701.007 39.1924C701.277 40.9834 701.131 42.8368 701.298 44.6486ZM722.911 51.2085C722.745 51.625 722.454 51.854 721.996 51.979C720.81 52.2497 719.625 52.4371 718.148 52.4788C717.461 52.458 716.484 52.6037 715.527 52.5829C714.882 52.6037 714.216 52.812 713.53 52.9786C711.699 53.4159 709.848 53.6033 708.017 53.7283C707.747 53.7491 707.497 53.7283 707.226 53.7075C706.873 53.6866 706.602 53.5409 706.436 53.2077C706.27 52.9578 706.103 52.7703 705.791 52.6662C705.333 52.5413 705.125 52.1664 705.084 51.7291C705.001 51.0419 704.834 50.3546 704.917 49.709C704.959 48.7511 704.98 47.8348 705.105 46.9185C705.209 46.1271 705.396 45.3774 705.646 44.6486C705.916 43.7947 706.498 43.1492 707.06 42.4828C708.038 41.3582 708.974 40.2337 709.91 39.0675C710.305 38.5885 710.7 38.1303 711.137 37.7138C712.489 36.381 713.509 34.8192 714.278 33.1531C714.715 32.2368 714.632 31.2581 714.466 30.2793C714.445 30.0294 714.258 29.9044 713.987 29.8836C713.114 29.6545 712.302 29.9877 711.678 30.5708C711.012 31.1956 710.326 31.9036 709.889 32.7575C709.556 33.3822 709.223 34.0278 708.849 34.6317C708.35 35.3606 707.663 35.5272 706.873 35.4022C706.748 35.4231 706.561 35.3398 706.478 35.2356C705.541 34.6317 704.709 33.9653 703.836 33.2989C703.045 32.7575 702.9 31.9869 703.066 31.1123C703.42 29.5712 704.293 28.3009 705.333 27.218C705.687 26.8015 706.082 26.4058 706.478 26.031C706.956 25.4687 707.518 25.073 708.142 24.719C708.995 24.2608 709.848 23.8235 710.825 23.6986C711.033 23.6361 711.304 23.6153 711.449 23.5112C712.989 22.8239 715.984 23.4695 717.149 24.4483C717.378 24.6357 717.648 24.7398 717.919 24.9064C718.605 25.3229 719.167 25.8436 719.645 26.4891C720.81 27.9885 721.268 29.6754 721.393 31.5288C721.414 31.7787 721.351 32.0911 721.33 32.3826C721.102 34.1319 720.457 35.7979 719.562 37.339C719.084 38.2136 718.564 39.1299 718.065 40.0254C717.503 41.025 716.775 41.8788 716.109 42.7535C715.943 42.9409 715.797 43.17 715.589 43.3574C715.069 43.878 714.965 44.5444 714.986 45.2317C715.007 45.5232 715.09 45.6482 715.402 45.7523C715.755 45.8564 716.109 45.8356 716.484 45.8356C717.524 45.7939 718.585 45.6898 719.625 45.6482C719.978 45.669 720.27 45.6273 720.623 45.6273C721.851 45.7523 722.558 46.377 722.703 47.6057C722.807 48.2097 722.932 48.8136 722.974 49.3967C723.099 50.0423 723.078 50.6254 722.911 51.2085ZM740.406 35.069C740.365 35.069 740.365 35.069 740.365 35.069C740.427 36.7559 740.531 38.4219 740.635 40.0671C740.635 40.5877 740.677 41.1083 740.781 41.6289C741.01 43.3782 741.093 45.1067 741.238 46.8352C741.259 47.6682 741.238 48.4387 741.322 49.2509C741.384 49.8548 741.114 50.2089 740.469 50.3546C739.949 50.5004 739.408 50.5837 738.846 50.6254C737.993 50.6462 737.119 50.7711 736.267 50.667C735.622 50.6045 734.873 49.9798 734.769 49.2926C734.582 48.2305 734.394 47.1476 734.207 46.0438C734.124 45.5232 733.999 44.9818 733.77 44.482C733.458 43.7947 732.917 43.4199 732.21 43.3158C731.815 43.2325 731.378 43.2325 730.983 43.2116C729.901 43.17 728.778 43.2325 727.738 43.5032C726.968 43.7114 726.344 43.4824 725.782 43.0242C725.179 42.5452 724.7 42.0871 724.388 41.4207C724.118 40.8376 723.764 40.2961 723.494 39.713C723.265 39.1508 723.161 38.5677 723.39 38.0262C723.868 36.506 723.931 34.9857 724.201 33.4447C724.347 32.6117 724.492 31.7162 724.617 30.8832C724.763 29.9461 724.804 29.009 724.95 28.0927C725.075 27.218 725.304 26.4058 725.678 25.6145C725.865 25.2605 725.949 24.7607 726.073 24.365C726.094 24.1984 726.094 24.0109 726.157 23.8652C726.281 23.5111 726.219 23.0113 726.489 22.8031C726.926 22.5532 727.342 22.22 727.904 22.1575L730.171 21.9493C730.567 21.9076 730.92 21.9701 731.253 21.9493C731.648 21.9076 731.919 22.0534 732.148 22.3449C732.585 22.928 732.647 23.5736 732.605 24.2192C732.522 25.1772 732.397 26.1768 732.273 27.1764C732.023 28.8007 731.773 30.4667 731.544 32.1327C731.399 33.0282 731.316 33.9237 731.212 34.8191C731.191 34.9857 731.149 35.1315 731.17 35.2981C731.253 35.7355 731.503 35.9229 731.919 35.9021C732.106 35.8812 732.314 35.8604 732.481 35.7563C732.647 35.6938 732.772 35.548 732.897 35.4855C733.687 35.1523 733.978 34.5276 733.937 33.7154C733.812 31.1748 733.791 28.5716 733.437 26.0102C733.396 25.6145 733.333 25.2396 733.25 24.9064C733.042 24.1775 733.042 23.4903 733.146 22.7823C733.209 22.1992 733.562 21.7618 734.145 21.6994C735.185 21.6577 736.183 21.2412 737.244 21.1996C738.16 21.1579 738.7 21.0746 739.012 22.4699C739.054 22.8656 739.137 23.2821 739.221 23.7194C739.429 25.7811 739.616 27.8844 739.845 29.9461C739.907 30.7166 740.073 31.4871 740.177 32.2577L740.406 35.069ZM691.687 31.3414C691.562 31.3622 691.5 31.2581 691.417 31.2372C690.522 30.9249 689.773 31.1748 689.191 31.8203C688.65 32.4243 688.276 33.1531 687.901 33.882C687.651 34.4235 687.527 34.9441 687.485 35.5064C687.423 37.7971 687.589 40.0879 687.88 42.3578C687.943 43.0034 688.151 43.6073 688.255 44.2321C688.317 44.9609 688.588 45.5857 688.858 46.2521C688.962 46.5853 689.17 46.8769 689.316 47.2101C689.69 47.8765 690.397 48.0639 691.021 48.3971C691.854 48.8552 692.561 48.6886 693.247 48.1055C693.351 48.0222 693.518 47.8765 693.622 47.689C693.892 47.3142 694.163 46.8977 694.475 46.5436C694.745 46.1688 694.828 45.7731 694.911 45.2941C695.161 44.2321 695.119 43.1492 695.223 42.0663C695.369 40.8792 695.265 39.6922 695.223 38.5052C695.057 36.5268 694.475 34.715 693.622 32.9657C693.226 32.1535 692.686 31.4663 691.687 31.3414ZM693.663 32.9657C693.247 32.1535 692.706 31.4455 691.708 31.3205C691.583 31.3414 691.521 31.2372 691.437 31.2164C690.543 30.904 689.794 31.1539 689.212 31.7995C688.671 32.4034 688.296 33.1323 687.922 33.8612C687.672 34.4026 687.547 34.9233 687.506 35.4855C687.443 37.7763 687.61 40.0671 687.901 42.337C687.963 42.9826 688.171 43.5865 688.276 44.2112C688.338 44.9401 688.608 45.5649 688.879 46.2313C688.983 46.5645 689.191 46.856 689.336 47.1892C689.711 47.8556 690.418 48.043 691.042 48.3762C691.874 48.8344 692.582 48.6678 693.268 48.0847C693.372 48.0014 693.539 47.8556 693.643 47.6682C693.913 47.2933 694.183 46.8768 694.495 46.5228C694.766 46.148 694.849 45.7523 694.932 45.2733C695.182 44.2112 695.14 43.1283 695.244 42.0454C695.39 40.8584 695.286 39.6714 695.244 38.4844C695.078 36.5268 694.495 34.715 693.663 32.9657ZM693.663 32.9657C693.247 32.1535 692.706 31.4455 691.708 31.3205C691.583 31.3414 691.521 31.2372 691.437 31.2164C690.543 30.904 689.794 31.1539 689.212 31.7995C688.671 32.4034 688.296 33.1323 687.922 33.8612C687.672 34.4026 687.547 34.9233 687.506 35.4855C687.443 37.7763 687.61 40.0671 687.901 42.337C687.963 42.9826 688.171 43.5865 688.276 44.2112C688.338 44.9401 688.608 45.5649 688.879 46.2313C688.983 46.5645 689.191 46.856 689.336 47.1892C689.711 47.8556 690.418 48.043 691.042 48.3762C691.874 48.8344 692.582 48.6678 693.268 48.0847C693.372 48.0014 693.539 47.8556 693.643 47.6682C693.913 47.2933 694.183 46.8768 694.495 46.5228C694.766 46.148 694.849 45.7523 694.932 45.2733C695.182 44.2112 695.14 43.1283 695.244 42.0454C695.39 40.8584 695.286 39.6714 695.244 38.4844C695.078 36.5268 694.495 34.715 693.663 32.9657Z" fill="white"/>
</svg>
