<svg width="350" height="145" viewBox="0 0 350 145" fill="none" xmlns="http://www.w3.org/2000/svg">
<path d="M0.885926 50.6348C0.0191601 45.9393 -0.173455 41.2438 0.115467 36.5483C0.115467 36.0691 0.308082 35.6858 0.404389 35.3025C0.500697 34.5359 0.982233 34.0568 1.75269 33.8651C2.81207 33.5776 3.87145 33.2902 4.83453 32.9069C5.99021 32.6194 7.1459 32.5236 8.30159 32.6194C9.7462 32.811 11.2871 33.0985 12.7317 33.386C13.5985 33.4818 13.9837 33.961 14.1763 34.7276C14.2726 35.1109 14.2726 35.3984 14.2726 35.7817C14.1763 38.7523 14.6579 41.8187 14.7542 44.7894C14.7542 45.9393 14.8505 47.0892 15.1394 48.1433C15.6209 50.1556 17.2582 51.4972 19.1843 51.6889C20.1474 51.8805 20.9178 51.4972 21.4957 50.8264C22.2661 49.6765 22.844 48.4308 23.0366 47.0892C23.5181 43.9269 24.096 40.7646 23.9997 37.5065C23.8071 35.1109 23.6145 32.811 24.1923 30.4154C24.2886 30.2237 24.2886 30.0321 24.2886 29.7446C23.7108 28.0197 23.9997 26.1032 23.4218 24.2825C23.1329 23.1326 23.0366 21.8868 22.7477 20.7369C22.4588 19.6828 21.8809 18.9162 21.3994 18.0538C20.9178 17.383 20.2437 16.808 19.3769 16.6164C18.3175 16.3289 17.2582 16.0414 16.1988 15.6581C15.6209 15.4664 15.1394 15.4664 14.5616 15.5623C12.1539 16.0414 9.8425 15.9456 7.43482 15.7539C7.24221 15.7539 7.04959 15.7539 6.85698 15.6581C5.50868 15.2748 3.58253 13.0708 3.58253 11.6334C3.48622 9.14189 3.48622 6.65041 4.06407 4.25474C4.35299 3.009 5.31606 2.24239 6.37544 1.85908C7.91636 1.28412 9.45728 0.804989 11.1908 0.900816C14.1763 0.996642 17.2582 0.900816 20.2437 0.900816C20.8215 0.900816 21.3994 0.900816 21.9772 0.804989C25.1554 0.134204 28.3335 0.51751 31.4153 0.709163C32.2821 0.709163 33.1489 0.804989 34.0156 0.900816C35.2676 0.996642 36.2307 1.5716 36.8086 2.62569C37.579 4.06309 38.0605 5.50049 38.0605 7.12954C38.1569 10.0043 38.1569 12.8791 38.1569 15.7539V33.5777C38.0605 37.794 38.0605 42.0104 38.0605 46.2267C37.9642 48.5266 37.7716 50.8264 37.2901 53.0304C36.7122 55.0428 36.1344 57.151 35.2676 59.0675C34.2083 61.4632 32.2821 62.9964 30.2597 64.338C30.1633 64.5296 29.9707 64.6254 29.6818 64.6254C27.6594 65.2004 25.5406 65.8712 23.4218 66.1587C21.3031 66.4461 18.9917 66.4461 16.7766 66.6378C13.0206 66.8294 9.93881 65.3921 7.33851 62.8047C5.89391 61.3673 4.4493 59.9299 3.29361 58.3009C2.81207 57.5343 2.33054 56.7677 2.13792 55.8094C1.65638 54.0845 1.17485 52.3596 0.885926 50.6348Z" fill="white"/>
<path d="M89.3151 23.0752C89.2188 22.6919 89.1225 22.2128 88.9299 21.8295C88.0631 19.5297 86.7148 17.4215 85.2702 15.3133C84.4035 13.9717 83.2478 12.8218 81.7069 12.2469C81.4757 12.151 81.2253 12.0744 80.9942 11.9785C79.877 14.0676 78.7406 16.1182 77.5656 18.1689C76.7759 19.6063 75.9862 21.1012 75.4084 22.6728C75.1965 23.4011 74.8305 24.1102 74.4068 25.1068C76.5641 24.3977 78.2205 23.746 79.9348 23.1711C81.3024 22.5961 82.747 22.1745 84.1145 21.5995C84.5383 21.4654 84.9813 21.3887 85.4051 21.3887C85.9829 21.3887 86.4837 22.0403 86.3489 22.5386C86.1948 23.0369 86.0599 23.5352 85.9059 23.9569C85.1161 25.8925 83.8256 27.5408 82.747 29.2656C81.2446 31.623 79.7229 34.057 78.1435 36.3568C77.1419 37.775 76.121 39.2891 75.2735 40.7073C72.5962 45.1537 69.8611 49.4467 67.4919 53.9505C67.2608 54.3913 67.0104 54.8321 66.7792 55.273C68.0505 55.6563 69.3795 55.8096 70.8241 55.6563C71.4983 55.5604 72.2687 55.5604 72.9429 55.6563C76.3137 56.1354 79.2029 54.7938 81.8995 53.1648C83.3441 52.3023 84.5961 51.0566 85.8481 49.9067C86.9075 48.8526 87.9668 47.7027 88.641 46.3611C89.6041 44.5404 90.2782 42.6239 90.5671 40.5157C90.7598 38.695 90.9524 36.9701 90.8561 35.4369C90.8561 31.0288 90.4708 27.0041 89.3151 23.0752ZM59.2287 32.7729C60.3074 29.0548 61.386 25.4709 62.3876 21.8103C63.1773 19.0889 63.9671 16.4441 64.7568 13.6651C65.4887 11.3652 65.9125 11.0011 68.3587 11.0011C69.8033 11.0011 71.1708 10.6561 72.6732 10.4453C72.8273 10.407 73.0007 10.3878 73.174 10.3495C70.9782 10.1387 68.7824 10.6561 66.5866 11.0011C66.2014 11.0969 65.9125 11.1928 65.6235 11.3844C63.89 12.2469 62.2528 13.1093 60.7119 14.1634C57.4374 16.3674 55.3187 19.338 54.3556 23.1711C53.4888 26.1417 53.0073 29.0165 52.6221 32.0829C52.2368 34.8619 52.3331 37.6409 53.3925 40.324C54.9334 44.0613 56.667 47.7027 59.6525 50.7691C60.6541 51.7657 61.5786 52.7815 62.8306 53.5289C63.2159 52.4365 63.6203 51.3441 64.0441 50.3091C64.8338 48.4501 65.5465 46.5144 66.1243 44.5021C66.4903 43.3713 66.9911 42.1447 67.4919 40.9948C68.1468 39.1358 68.8595 37.3534 69.5721 35.4944C69.2832 35.0536 68.9365 35.2069 68.6476 35.341C67.7808 35.7052 66.8563 36.1268 65.9125 36.5676C64.1212 37.4301 62.0216 37.6409 60.0762 37.6409H59.5177C58.6509 37.4876 58.2079 36.9126 58.439 35.9927C58.6509 34.9194 58.9398 33.8461 59.2287 32.7729Z" fill="white"/>
<path d="M101.354 27.5981C100.872 23.9567 100.198 20.4112 98.5608 17.0572C97.983 15.9073 97.1162 14.7574 96.4421 13.6075C94.8048 10.3494 92.2045 7.85789 89.4116 5.55805C86.8113 3.35404 83.6332 1.82082 80.1661 1.15003C79.1068 0.862554 77.9511 0.479248 76.7954 0.479248C75.2545 0.575075 73.6172 0.575075 71.7874 0.575075C70.4391 0.670901 68.8019 0.766728 67.0683 0.575075C66.5868 0.479248 66.009 0.575075 65.6237 0.766728C63.8902 1.53334 61.9641 1.72499 60.2305 2.20412C58.2081 2.77908 56.5709 3.929 55.0299 5.17475C53.9706 5.94136 53.0075 6.89962 51.9481 7.76206C50.985 8.52867 50.022 9.29529 49.3478 10.3494C48.2884 11.8826 47.229 13.4158 46.3623 15.0449C44.5324 18.2071 43.3768 21.5611 42.7989 25.1067C42.1248 29.6105 41.8358 34.1143 42.7026 38.5224C43.0878 40.1514 43.4731 41.7805 43.762 43.4095C43.9546 44.4636 44.3398 45.4219 44.8214 46.3801C46.4586 50.0215 48.77 53.088 51.4666 55.867C54.741 59.3167 58.497 62.0957 63.1197 63.7247C64.4681 64.2997 66.009 64.5872 67.4536 64.9705C69.8613 65.5454 72.2689 65.7371 74.6766 65.3538C75.4471 65.2579 76.3139 65.1621 77.0843 65.1621C78.7215 65.258 80.1661 64.8746 81.7071 64.4913C83.8258 64.0122 85.463 62.5748 87.2929 61.6166C88.256 61.1374 89.219 60.4666 90.0858 59.7C91.723 58.1668 93.1676 56.4419 94.6122 54.8129C95.6716 53.6629 96.4421 52.4172 97.3088 51.1715C98.6571 49.2549 99.235 47.0509 99.9091 44.8469C100.68 42.3554 101.354 39.6723 101.354 37.085C101.45 33.9227 101.643 30.7604 101.354 27.5981ZM66.5676 55.6753C66.3364 55.8861 66.1245 56.1736 65.8356 56.4611C64.6799 57.611 63.9673 57.611 62.7538 56.5377C62.3108 56.1736 62.0989 55.8286 62.2337 55.2537C62.4263 54.6787 62.6382 54.1038 62.8308 53.5288C63.2161 52.4364 63.6205 51.3439 64.0443 50.309C64.834 48.45 65.5467 46.5143 66.1245 44.5019C66.4905 43.3712 66.9913 42.1446 67.4921 40.9947C68.147 39.1357 68.8597 37.3533 69.5723 35.4942C69.2834 35.0534 68.9367 35.2068 68.6478 35.3409C67.781 35.7051 66.8565 36.1267 65.9127 36.5675C64.1213 37.4299 62.0218 37.6408 60.0764 37.6408H59.5179C58.6511 37.4874 58.2081 36.9125 58.4392 35.9925C58.6511 34.9193 58.94 33.846 59.2289 32.7728C60.3076 29.0547 61.3862 25.4708 62.3878 21.8102C63.1775 19.0888 63.9673 16.4439 64.757 13.665C65.4889 11.3651 65.9127 11.001 68.3589 11.001C69.8035 11.001 71.171 10.656 72.6734 10.4452C72.8275 10.4069 73.0009 10.3877 73.1742 10.3494C74.2529 10.1577 75.37 9.96607 76.5642 9.71692C77.431 9.58276 78.3556 9.29528 79.2994 9.08447C79.8772 8.93114 80.301 8.72033 80.8788 8.72033C81.6685 8.64367 82.1693 9.35278 82.0345 10.1577C81.9575 10.2919 81.8804 10.4452 81.7456 10.5794C81.4952 11.0585 81.2448 11.5185 80.9944 11.9784C79.8772 14.0674 78.7408 16.1181 77.5658 18.1688C76.7761 19.6062 75.9864 21.1011 75.4086 22.6727C75.1967 23.4009 74.8307 24.1101 74.407 25.1067C76.5643 24.3975 78.2207 23.7459 79.935 23.171C81.3026 22.596 82.7472 22.1744 84.1147 21.5994C84.5385 21.4653 84.9815 21.3886 85.4053 21.3886C85.9831 21.3886 86.4839 22.0402 86.3491 22.5385C86.195 23.0368 86.0601 23.5351 85.9061 23.9567C85.1163 25.8924 83.8258 27.5406 82.7472 29.2655C81.2448 31.6229 79.7231 34.0568 78.1437 36.3567C77.1421 37.7749 76.1212 39.289 75.2737 40.7072C72.5964 45.1536 69.8613 49.4466 67.4921 53.9504C67.261 54.3912 67.0106 54.832 66.7794 55.2728C66.7024 55.407 66.6446 55.5411 66.5676 55.6753Z" fill="white"/>
<path d="M134.561 66.1588C133.02 66.8296 131.479 66.8296 129.938 66.3505C128.782 66.063 127.626 65.7755 126.374 65.7755C121.944 65.6797 117.803 64.6256 113.951 62.4216C113.566 62.23 113.18 61.9425 112.795 61.5592C111.351 60.2176 110.099 58.5886 109.135 56.7678C107.595 53.9889 106.535 50.9224 106.439 47.6643C106.246 43.5438 105.957 39.5191 105.668 35.3985C105.572 32.3321 105.476 29.1698 105.572 26.0075C105.668 23.7077 105.572 21.4079 105.765 19.108C106.054 15.275 106.054 11.4419 106.054 7.51303C106.15 6.36311 106.15 5.11737 106.535 3.96745C106.824 3.10501 107.209 2.43422 108.076 1.95509C108.943 1.47596 109.906 1.09265 110.869 0.996827C113.18 0.901 115.492 0.996827 117.803 1.28431C118.574 1.28431 119.151 1.76344 119.344 2.53005C119.633 3.20084 119.922 3.96745 119.922 4.82989V6.55476L119.537 16.8082C119.537 19.9705 119.633 23.1327 119.633 26.295C119.633 31.3738 119.633 36.5485 119.826 41.7231C119.922 43.2563 120.115 44.8854 120.403 46.4186C120.692 47.7602 121.174 49.0059 121.848 50.1558C122.522 51.3057 123.485 51.9765 124.737 52.264C127.434 52.7431 130.13 52.6473 132.634 51.4974C134.464 50.7308 135.716 49.1976 136.294 47.281C137.642 43.0647 137.931 38.6566 137.835 34.3444C137.835 30.7989 137.739 27.3491 137.546 23.8035C137.546 21.4079 137.161 19.108 137.257 16.7124C137.546 12.4002 137.354 8.18381 137.065 3.87162C136.968 2.14674 137.835 1.09265 139.472 0.901C141.302 0.613521 143.132 0.421868 145.058 0.709347C146.31 0.901 147.658 0.805174 148.91 0.805174C150.548 0.901 151.029 1.38013 151.318 3.00918C151.414 3.39249 151.414 3.77579 151.414 4.06327C151.511 7.12972 151.703 10.1003 151.318 13.071C151.222 13.7418 151.125 14.4125 151.222 14.9875C151.222 19.108 151.029 23.2286 151.125 27.2533C151.222 30.8947 151.029 34.4403 151.029 37.9859C151.029 40.3815 151.125 42.7772 150.644 45.077C150.259 46.7061 150.259 48.4309 149.873 50.1558C149.585 51.5932 149.103 53.0306 148.525 54.468C147.369 56.9595 146.117 59.3552 144.48 61.5592C144.095 62.0383 143.613 62.5174 143.132 62.9007C141.591 63.7632 140.243 64.9131 138.317 65.1048C137.065 65.2006 135.716 65.6797 134.561 66.1588Z" fill="white"/>
<path d="M177.995 56.0969C177.706 54.8511 177.321 53.6054 176.84 52.3596C176.262 50.6348 175.299 49.8681 173.758 49.964C172.217 50.0598 171.061 51.0181 170.483 52.3596C170.291 52.9346 170.194 53.5095 170.098 54.0845C170.002 55.1386 170.098 56.1927 170.002 57.2468V63.2839C170.098 64.2421 169.617 65.0087 169.039 65.7753C168.654 66.3503 168.076 66.6378 167.402 66.6378C165.283 66.6378 163.26 66.7336 161.142 66.6378C159.986 66.6378 159.023 66.2545 158.349 65.2962L157.771 64.6254C156.423 63.763 156.037 62.4214 155.845 60.984C155.652 59.6424 155.556 58.3009 155.652 56.9593L155.845 43.8311H155.941V31.182C155.941 30.1279 156.037 29.0738 156.037 28.0197C156.037 27.3489 156.134 26.6781 156.037 26.0073C155.556 22.1743 155.845 18.1496 155.748 14.2207C155.652 11.5375 155.748 8.8544 155.652 6.07543C155.652 5.30882 155.845 4.63803 156.134 3.87142C156.711 2.14655 157.771 1.18828 159.504 0.804974C161.238 0.517495 162.971 0.230015 164.801 0.230015C166.15 0.230015 167.402 0.230015 168.654 0.134189C171.832 -0.0574641 174.914 -0.0574641 177.995 0.325842C178.477 0.421668 179.055 0.421668 179.633 0.421668C181.655 0.421668 183.485 0.804974 185.218 1.85907C186.278 2.43402 187.433 2.81733 188.589 3.39229C190.612 4.35055 191.96 5.88378 193.212 7.70448C194.753 10.0043 195.812 12.5916 196.101 15.4664C196.583 19.2995 196.872 23.2284 196.872 27.1573C196.775 29.8404 196.294 32.4277 195.042 34.8234C194.079 36.7399 193.116 38.6564 191.767 40.3813C190.804 41.6271 190.515 43.0645 190.708 44.5977C191.093 46.8975 191.96 49.1015 193.308 50.9222C193.886 51.8805 194.753 52.6471 195.908 53.1262C198.316 53.9887 199.087 55.7136 198.99 58.1092C198.894 59.7383 198.99 61.4631 199.087 63.0922C199.087 64.1463 198.99 65.2004 198.605 66.2545C198.412 66.9253 197.931 67.3086 197.257 67.4044C195.716 67.596 194.079 67.8835 192.538 67.6919C190.419 67.3086 188.3 67.2127 186.278 66.2545C184.641 65.4879 183.292 64.2421 182.04 62.9964C179.921 61.0798 178.573 58.8758 177.995 56.0969ZM181.462 26.0073C182.425 22.9409 182.714 19.8744 180.981 16.9038C180.499 16.1372 179.921 15.5623 179.151 15.179C177.321 14.3165 175.491 14.029 173.469 14.604C172.602 14.8915 171.928 15.2748 171.543 16.1372C170.772 18.0537 170.098 19.8744 170.387 21.9826C170.483 22.6534 170.387 23.2284 170.387 23.8992C170.387 25.0491 170.483 26.199 170.387 27.3489C170.194 28.7863 170.965 29.7446 171.735 30.7987L172.602 31.5653C173.758 32.6194 174.528 32.7152 175.877 31.9486C176.743 31.4695 177.61 30.7987 178.477 30.1279C179.921 29.0738 180.981 27.7322 181.462 26.0073Z" fill="white"/>
<path d="M250.322 3.48814C250.707 4.54223 250.803 5.5005 250.707 6.65041C250.514 9.23773 249.937 11.9209 250.033 14.5082V17.2872C250.033 17.8621 250.129 18.3412 250.033 18.8204C249.551 22.2701 249.84 25.7199 249.648 29.1696L249.359 33.1944C249.07 36.2608 249.359 39.3273 249.359 42.3937C249.262 45.1727 249.359 47.8558 249.359 50.539C249.359 53.9887 249.262 57.4385 249.262 60.8882C249.262 61.9423 249.262 62.9006 248.877 63.8588C248.203 65.2962 247.433 65.8712 245.892 65.8712C244.543 65.7754 243.291 65.7754 242.039 65.7754C241.269 65.7754 240.787 65.5837 240.209 65.2004C238.476 64.0505 237.128 62.4214 235.683 60.984C234.816 60.2174 234.431 59.0675 233.853 58.0134C232.312 55.5219 230.771 53.0304 229.327 50.539L228.46 49.0057C227.978 47.6642 227.208 46.5142 226.341 45.3643C225.474 44.2144 224.8 42.8728 224.126 41.6271L223.067 39.8064C222.2 38.4648 220.274 38.2732 219.214 39.5189C218.926 39.9022 218.637 40.3813 218.54 40.8605C217.962 42.4895 217.577 44.1186 217.577 45.9393C217.674 48.6224 217.866 51.3056 217.577 53.7012L217.77 59.4508V63.2839C217.77 64.0505 217.481 64.6254 217.192 65.2962C216.903 65.7754 216.518 66.0628 216.036 66.2545C215.362 66.4461 214.688 66.6378 213.918 66.542C211.991 66.542 210.065 66.4461 208.139 66.542C206.502 66.542 205.635 65.5837 204.672 64.5296C204.479 64.338 204.479 63.9547 204.383 63.5713C204.287 62.5173 204.191 61.4632 204.191 60.3133C204.191 58.5884 203.998 56.7677 203.998 55.0428C204.094 51.0181 204.287 46.9934 204.287 42.9687C204.287 39.0398 204.287 35.1109 204.191 31.182C204.191 30.0321 203.998 28.8822 203.805 27.7322C203.131 23.8034 203.131 19.7786 203.324 15.7539C203.42 15.179 203.42 14.5082 203.324 13.8374C202.939 11.2501 203.131 8.7586 203.131 6.17128C203.227 4.63806 203.902 3.39231 204.672 2.24239C204.961 1.85909 205.346 1.57161 205.635 1.37996C207.947 0.613344 210.258 0.0383853 212.666 0.709171C214.399 1.09248 215.747 1.95492 216.807 3.48814C218.54 5.78798 219.985 8.18364 221.333 10.771C222.104 12.0167 223.067 13.1666 223.837 14.5082C225.378 16.9997 227.015 19.3953 228.653 21.791C229.327 22.7493 230.097 23.6117 230.964 24.4741C231.349 24.8574 231.831 25.1449 232.409 25.3366C233.468 25.8157 234.624 25.4324 234.913 24.2825C235.587 22.1743 235.972 20.0661 235.779 17.9579C235.587 16.3289 235.587 14.6998 235.779 12.975C236.068 10.6751 235.683 8.27946 235.683 5.97963L235.49 4.4464C235.49 2.81735 236.068 1.95492 237.513 1.28413C238.957 0.709171 240.498 0.613344 242.039 0.613344C243.965 0.613344 245.892 0.804997 247.818 1.1883C249.166 1.37996 249.937 2.24239 250.322 3.48814Z" fill="white"/>
<path d="M259.953 66.0629C258.219 66.0629 256.775 65.3921 256.101 63.6672C255.523 62.3257 255.041 60.9841 255.137 59.4509C255.137 57.6302 255.137 55.7136 255.234 53.8929C255.33 51.4973 255.426 49.1974 255.234 46.8018C254.945 44.3103 255.041 41.8188 255.137 39.3273V25.145C255.137 23.1326 255.137 21.1203 255.041 19.2037C254.849 16.6164 254.752 14.0291 254.945 11.4418C255.137 10.2919 255.041 9.14196 255.041 7.99205C255.041 6.84213 255.33 5.59638 255.715 4.44647C256.582 2.0508 258.412 0.996713 260.82 0.900887C263.035 0.80506 265.346 0.900887 267.561 0.900887C268.909 0.900887 270.258 0.900887 271.606 0.709234C272.665 0.613407 273.821 0.613407 274.88 0.80506C275.458 0.900887 276.036 0.900887 276.614 0.900887L289.904 0.325928H291.253C292.986 0.325928 294.046 1.18837 294.623 2.72159C294.623 2.81742 294.72 2.91324 294.72 2.91324C295.394 5.88386 295.49 8.85449 294.72 11.8251C294.431 12.975 293.757 13.55 292.697 13.9333C291.638 14.3166 290.579 14.6041 289.423 14.5082C286.148 14.5082 282.97 14.6999 279.696 14.3166C277.866 14.1249 276.036 14.3166 274.399 14.7957C272.473 15.3707 270.932 16.6164 270.643 18.8204C270.45 19.7787 270.547 20.6411 270.643 21.5994C270.932 23.0368 271.702 24.0909 273.147 24.4742C275.073 25.0492 276.903 25.6241 278.925 25.4325C280.274 25.4325 281.622 25.4325 282.97 25.3366C284.03 25.3366 285.089 25.4325 286.148 25.7199C288.075 26.2949 289.23 27.4448 289.327 29.3614C289.423 31.4695 289.423 33.5777 289.134 35.7817C288.941 37.6983 287.978 38.6565 286.052 39.0398C283.837 39.519 281.622 39.7106 279.407 39.6148C277.192 39.519 275.169 40.0939 273.051 40.7647C272.184 41.0522 271.702 41.723 271.221 42.4896C270.45 44.2145 270.354 46.131 270.45 47.9517C270.547 49.3891 271.991 50.6348 273.34 50.7307C274.11 50.7307 274.88 50.9223 275.651 51.0181C276.807 51.3056 277.962 51.3056 279.118 51.2098C280.659 51.0181 282.296 51.0181 283.837 51.114C285.474 51.2098 287.208 51.114 288.845 51.114C289.712 51.114 290.579 51.2098 291.445 51.2098C293.564 51.2098 294.816 52.4555 295.683 54.2762C296.742 56.7677 296.453 59.3551 295.972 61.8465C295.875 62.3257 295.683 62.709 295.587 63.0923C295.394 63.8589 295.009 64.4339 294.335 64.8172C294.046 65.0088 293.757 65.2005 293.468 65.4879C292.986 66.0629 292.312 66.2546 291.542 66.2546C289.23 66.4462 286.823 66.9253 284.511 66.3504C284.126 66.2546 283.644 66.4462 283.163 66.4462C282.489 66.4462 281.718 66.542 281.044 66.4462C277.866 65.8712 274.592 66.0629 271.413 66.4462C269.006 66.7337 266.694 66.7337 264.287 66.542C262.842 66.3504 261.397 66.1587 259.953 66.0629Z" fill="white"/>
<path d="M325.056 14.1251C326.115 14.0292 326.982 13.7418 327.753 12.7835C328.427 11.9211 329.197 11.1544 329.679 10.1962L332.857 4.35076C333.146 3.87163 333.531 3.29667 334.013 2.81753C335.168 1.47596 336.613 0.613525 338.443 0.613525C339.984 0.613525 341.525 0.613525 342.969 0.901005C343.932 1.09266 344.799 1.09266 345.762 1.09266C346.629 1.09266 347.496 1.18848 348.266 1.38014C349.614 1.66762 350 2.24258 350 3.48832C350 4.25493 349.807 4.92572 349.614 5.5965C348.94 7.80051 347.688 9.71704 346.436 11.6336C345.473 13.3584 344.317 14.8917 343.258 16.5207C342.295 18.0539 341.332 19.683 340.273 21.2162C338.732 23.4202 337.287 25.7201 335.842 28.0199C333.627 31.853 332.375 35.8777 332.472 40.2857C332.568 44.3104 332.857 48.2393 332.664 52.264V57.4386C332.664 58.876 332.472 60.8884 332.472 62.9966C332.375 63.7632 332.183 64.3381 331.509 64.8173L330.642 65.7755C330.449 66.063 330.064 66.2547 329.775 66.2547C328.33 66.3505 326.886 66.7338 325.441 66.3505C325.345 66.2547 325.249 66.2547 325.152 66.2547C325.056 66.2547 325.056 66.2547 324.96 66.3505C323.515 66.7338 322.071 66.3505 320.626 66.2547C320.337 66.2547 319.952 66.063 319.759 65.7755L318.892 64.8173C318.218 64.3381 318.026 63.7632 317.929 62.9966C317.929 60.8884 317.737 58.876 317.737 57.4386V52.264C317.544 48.2393 317.833 44.3104 317.929 40.2857C318.026 35.8777 316.774 31.853 314.559 28.0199C313.114 25.7201 311.669 23.4202 310.128 21.2162C309.069 19.683 308.106 18.0539 307.143 16.5207C306.083 14.8917 304.928 13.3584 303.965 11.6336C302.713 9.71704 301.461 7.80051 300.787 5.5965C300.594 4.92572 300.401 4.25493 300.401 3.48832C300.401 2.24258 300.787 1.66762 302.135 1.38014C302.905 1.18848 303.772 1.09266 304.639 1.09266C305.602 1.09266 306.469 1.09266 307.432 0.901005C308.876 0.613525 310.417 0.613525 311.958 0.613525C313.788 0.613525 315.233 1.47596 316.388 2.81753C316.87 3.29667 317.255 3.87163 317.544 4.35076L320.722 10.1962C321.204 11.1544 321.974 11.9211 322.648 12.7835C323.322 13.6459 324.093 14.0292 325.056 14.1251Z" fill="white"/>
<path d="M15.2363 137.78C15.4289 138.738 15.2363 139.504 15.0436 140.367C14.851 141.325 14.2732 141.9 13.4064 142.092C12.5397 142.379 11.6729 142.475 10.8061 142.475C8.78367 142.475 6.66491 142.571 4.54615 142.571C3.87199 142.571 3.29415 142.379 2.71631 142.188C1.56062 141.9 1.07908 141.229 0.886469 140.079C0.790162 139.504 0.790162 138.834 0.790162 138.163C0.693854 133.084 0.693854 128.005 0.693854 122.926H0.886469C0.886469 118.231 0.693854 113.535 0.886469 108.84C1.07908 105.869 0.886469 102.803 0.790162 99.8323C0.790162 95.9034 0.693854 91.9745 0.597547 88.0456C0.597547 87.7581 0.693854 87.4707 0.597547 87.1832C0.116011 85.2667 0.404932 83.3501 0.50124 81.4336C0.50124 80.5712 0.404932 79.7087 0.404932 78.8463C0.404932 77.5047 0.597547 77.1214 1.94585 77.0256C2.90892 76.9298 3.872 76.5464 4.83507 76.5464C6.66491 76.6423 8.39844 76.5464 10.2283 76.5464C10.9987 76.6423 11.7692 77.0256 12.5397 77.2172C13.6953 77.5047 14.2732 78.3672 14.4658 79.5171C14.5621 80.2837 14.5621 81.2419 14.4658 82.0086L13.7916 100.024C13.7916 102.42 13.9843 104.815 14.7547 107.019C15.3326 108.744 16.3919 109.894 18.2218 110.469C20.0516 110.948 21.8815 111.14 23.8076 111.14C24.867 111.14 25.7338 110.661 26.5042 109.99C28.623 107.978 29.586 105.582 29.7787 102.803C29.7787 101.845 29.875 100.886 29.9713 100.024C30.1639 98.6824 30.2602 97.245 29.9713 95.9034C29.6824 94.1785 29.6824 92.3578 29.6824 90.6329C29.586 88.4289 29.2008 86.2249 29.2971 83.9251C29.2971 82.296 29.3934 80.5712 29.2971 78.8463C29.2971 77.7922 29.875 77.2172 30.7417 76.9298C31.3196 76.7381 31.9937 76.5464 32.5716 76.4506C34.0162 76.3548 35.4608 76.3548 36.9054 76.6423C37.6759 76.8339 38.4463 76.8339 39.2168 76.8339C39.9872 76.8339 40.6614 76.9298 41.4318 77.0256C42.5875 77.2172 43.358 77.888 43.7432 78.9421C44.0321 79.8045 44.3211 80.5712 44.3211 81.4336C44.4174 83.3501 44.5137 85.3625 44.2248 87.279C43.8395 89.7705 43.5506 92.3578 43.2617 94.9451C42.8764 97.3408 42.8764 99.9281 42.8764 102.42C42.8764 106.636 43.0691 110.852 43.1654 115.069L43.4543 118.039C43.7432 121.106 43.7432 124.172 43.6469 127.239C43.6469 129.251 43.7432 131.263 43.7432 133.276C43.8395 135.671 43.4543 138.067 42.5875 140.367C42.2986 141.133 41.9134 141.613 41.1429 141.804C40.4688 141.9 39.8909 142.188 39.2168 142.283C38.0611 142.475 36.9054 142.379 35.846 142.954C33.8236 142.954 31.8011 142.858 29.9713 141.9C29.2971 141.517 28.9119 140.942 28.8156 139.984C28.7193 137.684 28.623 135.288 28.4304 132.988C28.334 131.647 28.1414 130.401 27.9488 129.155C27.8525 128.005 27.1784 127.334 26.0227 127.239C25.3485 127.239 24.6744 127.143 24.0965 127.143C23.2298 127.239 22.363 127.334 21.4962 127.143C20.4368 126.951 19.4738 127.334 18.607 127.718C17.9329 128.005 17.355 128.484 17.0661 129.155C15.6215 131.838 14.851 134.713 15.2363 137.78Z" fill="white"/>
<path d="M59.6334 143.242L50.9658 142.571C49.2323 142.379 48.2692 140.846 48.4618 139.025C48.6544 136.438 49.6175 133.946 50.099 131.359C50.7732 128.005 51.9289 124.747 52.7956 121.393C52.8919 120.722 53.0846 120.052 53.2772 119.285C53.5661 117.848 53.855 116.41 54.7218 115.069C55.0107 114.589 55.2033 114.015 55.3959 113.535L57.8036 106.157C58.1888 105.007 58.3815 103.665 58.5741 102.42C59.4408 98.2032 60.3076 93.9868 61.9448 89.9621C63.1005 86.8956 63.871 83.7334 64.6414 80.5711C65.123 78.7504 65.9897 77.6005 67.8196 77.2172C72.1534 76.1631 76.4872 75.7798 80.8211 76.3547C82.9398 76.6422 84.2881 77.7921 85.1549 79.6128C85.5401 80.3794 85.829 81.3377 86.0217 82.2001C86.6958 84.8833 87.37 87.6622 87.8515 90.3454C88.1404 91.7828 88.1404 93.2202 88.333 94.6576C88.7183 97.2449 89.0072 99.8322 89.6813 102.42C90.1629 103.953 90.2592 105.486 90.4518 107.115C90.5481 108.361 90.9333 109.607 91.1259 110.852L91.8964 114.685C92.089 116.027 92.2816 117.368 92.7632 118.614C93.5336 121.202 93.9188 123.98 94.4004 126.568C94.8819 128.963 95.3635 131.263 95.7487 133.563C96.0376 135.384 96.1339 137.3 96.3265 139.121V139.504C96.2302 141.229 95.5561 142.092 93.9188 142.379C92.1853 142.571 90.4518 143.05 88.9109 142.858C87.5626 142.954 86.3106 142.858 85.1549 142.571C84.2881 142.475 83.614 142.092 83.1324 141.517C82.2657 140.463 81.3989 139.504 81.11 138.259C80.8211 136.917 80.4358 135.767 80.2432 134.426C79.9543 133.276 79.2801 132.701 78.1245 132.605C76.0057 132.413 73.8869 132.317 71.6719 132.317C70.6125 132.317 69.4568 132.509 68.3011 132.701C66.4713 132.988 65.123 133.946 64.4488 135.671C63.9673 136.917 63.4857 138.067 63.1005 139.313C62.7153 140.463 62.1374 141.325 61.4633 142.283C60.9818 142.954 60.3076 143.242 59.6334 143.242ZM71.2866 115.164C72.4423 115.644 73.5017 115.644 74.6574 115.26C75.9094 114.781 76.6798 113.919 76.7761 112.673C76.9688 111.523 76.7761 110.565 76.5835 109.511C76.1983 107.594 75.3315 105.773 75.3315 103.857C75.3315 103.09 75.0426 102.324 74.7537 101.557C74.5611 100.886 74.0795 100.695 73.5017 101.078C72.6349 101.557 72.1534 102.324 71.8645 103.282C71.3829 105.486 70.8051 107.69 70.2273 109.894C70.0346 110.852 69.9383 111.811 69.842 112.577C69.842 114.206 70.0346 114.589 71.2866 115.164Z" fill="white"/>
<path d="M141.013 85.4582C142.265 87.7581 142.458 90.0579 141.591 92.4536C141.013 93.891 139.954 94.8492 138.606 95.52C137.835 95.9033 137.065 96.1908 136.294 96.6699C135.139 97.3407 133.983 97.3407 132.635 96.5741C130.997 95.6158 129.745 94.0826 128.493 92.6452C127.53 91.4953 126.278 90.7287 124.834 90.1537C123.582 89.6746 122.233 89.7704 121.078 90.1537C118.959 90.9204 117.033 92.2619 115.877 94.1785C114.914 95.8075 114.047 97.6282 113.758 99.5447C113.181 102.803 112.795 106.061 112.892 109.798C113.084 111.811 112.892 114.398 113.373 116.889C113.566 117.656 113.662 118.518 114.047 119.381C114.818 121.297 115.685 123.31 116.648 125.226C117.803 127.43 119.729 128.389 121.848 128.963C123.1 129.251 124.352 128.772 125.315 128.005C126.952 126.664 128.59 125.226 129.842 123.501C130.997 122.16 132.249 121.202 134.079 121.489C135.428 121.681 136.68 122.447 137.546 123.501L140.628 127.334C141.495 128.293 141.688 129.443 141.11 130.593C139.858 132.988 138.991 135.48 136.487 137.205C135.331 137.971 134.272 139.121 133.116 140.079C130.323 142.283 127.145 143.05 123.678 143.337C123.293 143.337 123.004 143.242 122.619 143.146C121.078 142.954 119.537 142.571 117.996 142.475C116.07 142.188 114.433 141.325 112.892 140.175C110.002 138.067 107.402 135.671 105.187 132.797C104.128 131.455 103.453 129.826 102.779 128.197C102.105 126.568 101.431 124.747 101.142 122.926C100.95 121.776 100.468 120.627 100.275 119.381C99.8901 117.752 99.6975 116.027 99.5049 114.302C99.216 112.002 99.0234 109.798 98.8308 107.498C98.7344 106.348 98.8307 105.199 99.0234 104.049C99.3123 102.994 99.0234 101.845 99.216 100.695C99.5049 99.2573 99.7938 97.8199 100.275 96.4783C101.046 94.7534 101.72 92.9327 102.394 91.112C102.49 90.8245 102.683 90.6329 102.683 90.3454C102.972 88.6205 103.839 87.0873 104.705 85.6499C105.765 83.925 106.921 82.296 108.558 81.146C109.617 80.3794 110.388 79.4212 111.447 78.7504C113.277 77.4088 115.396 76.5464 117.803 76.6422C118.863 76.738 119.826 76.6422 120.789 76.4506C122.33 76.0672 123.774 75.8756 125.315 76.1631C125.893 76.2589 126.471 76.1631 127.049 76.1631C127.916 76.1631 128.782 76.3547 129.553 76.738C129.842 76.9297 130.131 77.1213 130.516 77.2172C132.731 77.6005 134.464 79.0379 136.391 80.092C136.583 80.1878 136.872 80.2836 136.968 80.4753C138.22 82.2001 139.954 83.5417 141.013 85.4582Z" fill="white"/>
<path d="M188.493 131.742C188.493 134.138 188.493 136.534 188.397 138.834C188.397 139.409 188.204 139.983 188.011 140.463C187.53 141.804 186.567 142.571 185.218 142.475C183.292 142.283 181.366 142.475 179.44 142.187C177.514 141.9 175.78 141.229 174.432 139.888C172.891 138.546 171.446 137.109 170.291 135.48C169.52 134.521 168.942 133.276 168.365 132.126C167.594 130.497 167.016 128.868 166.535 127.143C166.246 125.897 165.764 124.651 165.283 123.501C165.09 122.831 164.705 122.351 164.031 122.16C162.49 121.585 161.719 121.968 161.719 123.597C161.719 127.909 161.045 132.126 161.334 136.438C161.334 137.492 161.334 138.45 161.238 139.504C161.142 141.038 160.467 141.9 158.83 142.283C158.06 142.475 157.289 142.571 156.422 142.475C154.978 142.379 153.437 142.187 151.896 142.187C151.029 142.092 150.355 141.804 149.777 141.325C149.103 140.75 148.525 140.175 147.947 139.504C147.562 139.217 147.466 138.642 147.37 138.163C147.273 137.492 147.177 136.725 147.177 136.055V124.939H146.984C146.984 121.297 147.081 117.56 146.984 113.919C146.984 112.29 146.792 110.661 146.599 109.031C146.118 104.815 146.214 100.503 146.214 96.1908C146.214 94.2742 146.503 92.3577 146.599 90.4412C146.792 87.2789 147.177 84.1166 147.081 80.9543C146.984 79.9003 147.273 78.942 148.236 78.1754C149.007 77.5046 149.585 77.2171 150.548 77.5046C151.415 77.7921 152.378 77.6962 153.341 77.6962C155.074 77.5046 156.808 77.5046 158.541 77.5046C160.082 77.5046 160.756 77.9837 161.142 79.4211C161.816 81.6251 162.201 83.925 161.816 86.2248C161.43 89.0996 161.816 91.9744 162.201 94.7534C162.201 95.0408 162.297 95.3283 162.394 95.6158C162.779 96.0949 163.549 96.2866 164.127 95.9033C165.379 95.2325 166.438 94.3701 167.113 93.0285C168.846 89.8662 169.906 86.6081 170.965 83.2542C171.446 81.6251 172.024 80.0919 172.506 78.5587C172.698 77.6962 173.276 77.1213 174.143 77.0255C176.551 76.5463 179.055 75.8755 181.559 76.5463C182.329 76.738 183.196 76.6422 183.966 76.6422C184.737 76.6422 185.507 76.8338 186.278 77.1213C187.53 77.6004 188.011 78.5587 188.011 79.8044C188.011 82.8709 187.722 85.8415 186.567 88.8121L183.292 96.7657C182.714 98.2989 181.751 99.6405 180.788 100.982C179.344 103.09 177.995 105.294 176.647 107.498C175.78 109.031 176.069 111.81 177.225 112.96C179.247 115.164 180.21 117.848 180.981 120.626L182.618 125.514C182.907 126.568 183.485 127.43 184.737 127.622C185.411 127.813 185.989 128.293 186.663 128.676C187.915 129.251 188.493 130.401 188.493 131.742Z" fill="white"/>
<path d="M194.175 134.617C193.212 133.467 192.827 132.222 193.019 130.88C193.116 129.826 193.308 128.868 193.886 128.005C194.753 126.664 195.62 125.418 196.679 124.172C197.546 122.926 199.761 122.447 201.109 123.118L205.828 125.705C208.14 126.951 210.451 128.101 212.955 128.868C214.111 129.155 215.17 129.059 216.326 128.58C217.578 128.101 218.156 127.047 218.637 125.993C219.6 123.98 219.504 122.064 218.348 120.243C217.963 119.572 217.385 118.997 216.711 118.518C215.555 117.56 214.207 116.889 212.762 116.314C210.836 115.644 208.814 115.069 206.791 114.589C206.406 114.589 206.021 114.494 205.732 114.302C201.976 112.385 198.509 109.99 195.62 106.828C194.464 105.678 193.405 104.432 192.538 102.994C191.286 100.79 191.19 98.3948 190.997 95.9033C190.804 91.7828 192.538 88.4289 195.138 85.4582C196.198 84.2125 197.45 83.0626 198.413 81.721C199.665 80.1878 201.206 79.2295 202.939 78.4629C206.021 77.0255 209.295 76.2589 212.666 76.3547C213.244 76.3547 213.726 76.2589 214.207 76.1631C216.422 75.8756 218.445 76.1631 220.467 76.9297C223.067 77.8879 225.379 79.0379 227.594 80.4753C230.194 82.1043 232.12 84.3083 232.987 87.1831C233.276 88.0455 233.469 89.0038 233.469 89.9621C233.565 91.112 233.18 92.0703 232.602 92.9327C231.542 94.4659 230.387 95.8075 229.038 96.9574C227.305 98.3948 226.053 98.299 224.705 97.3407C224.223 97.0532 223.838 96.6699 223.356 96.2866C221.719 94.8492 220.178 93.4118 218.541 92.0703C218.156 91.687 217.77 91.3995 217.289 91.2078C215.459 90.6329 213.629 89.8663 211.607 90.0579H210.74C208.043 90.537 205.539 94.6576 206.502 97.3407C206.695 97.8198 206.984 98.2031 207.273 98.5865C208.429 99.7364 209.681 100.599 211.318 101.078C214.014 101.749 216.518 102.994 219.119 103.857C221.045 104.528 222.778 105.486 224.223 106.732C225.668 107.977 227.112 109.511 228.268 111.14C228.846 111.906 229.327 112.673 229.809 113.44C230.868 114.973 231.542 116.698 232.217 118.423C233.276 121.681 233.372 124.939 232.987 128.197C232.602 131.551 231.446 134.617 229.327 137.205C227.979 138.834 226.342 140.079 224.512 141.133C221.719 142.667 218.637 143.05 215.555 143.05C212.377 143.146 209.295 142.667 206.214 141.708C204.287 141.038 202.458 140.367 200.628 139.504C198.124 138.259 196.005 136.63 194.175 134.617Z" fill="white"/>
<path d="M287.978 105.218C287.593 104.47 287.092 103.818 286.167 103.703C286.052 103.723 285.994 103.627 285.917 103.608C285.089 103.32 284.395 103.55 283.856 104.144C283.355 104.7 283.009 105.371 282.662 106.042C282.431 106.54 282.315 107.019 282.277 107.537C282.219 109.645 282.373 111.753 282.643 113.842C282.7 114.436 282.893 114.992 282.989 115.567C283.047 116.238 283.297 116.813 283.548 117.426C283.644 117.732 283.837 118.001 283.972 118.307C284.318 118.921 284.973 119.093 285.551 119.4C286.322 119.821 286.976 119.668 287.612 119.132C287.708 119.055 287.862 118.921 287.959 118.748C288.209 118.403 288.46 118.02 288.748 117.694C288.999 117.349 289.076 116.985 289.153 116.544C289.384 115.567 289.346 114.57 289.442 113.574C289.577 112.481 289.48 111.389 289.442 110.296C289.288 108.495 288.748 106.827 287.978 105.218ZM287.978 105.218C287.593 104.47 287.092 103.818 286.167 103.703C286.052 103.723 285.994 103.627 285.917 103.608C285.089 103.32 284.395 103.55 283.856 104.144C283.355 104.7 283.009 105.371 282.662 106.042C282.431 106.54 282.315 107.019 282.277 107.537C282.219 109.645 282.373 111.753 282.643 113.842C282.7 114.436 282.893 114.992 282.989 115.567C283.047 116.238 283.297 116.813 283.548 117.426C283.644 117.732 283.837 118.001 283.972 118.307C284.318 118.921 284.973 119.093 285.551 119.4C286.322 119.821 286.976 119.668 287.612 119.132C287.708 119.055 287.862 118.921 287.959 118.748C288.209 118.403 288.46 118.02 288.748 117.694C288.999 117.349 289.076 116.985 289.153 116.544C289.384 115.567 289.346 114.57 289.442 113.574C289.577 112.481 289.48 111.389 289.442 110.296C289.288 108.495 288.748 106.827 287.978 105.218ZM347.284 94.9641C345.782 82.5641 334.552 73.6714 322.09 75.013L260.242 81.5867C247.722 82.9283 238.63 94.0441 239.863 106.502L241.596 123.923C242.829 136.419 253.982 145.56 266.54 144.391L328.851 138.565C341.679 137.358 350.982 125.878 349.461 113.152L347.284 94.9641ZM274.822 125.494C274.649 125.878 274.379 126.089 273.956 126.204C272.858 126.453 271.76 126.625 270.412 126.663C269.776 126.644 268.851 126.778 267.965 126.759C267.368 126.778 266.752 126.97 266.116 127.123C264.421 127.526 262.726 127.698 261.012 127.813C260.781 127.833 260.53 127.813 260.28 127.794C259.953 127.775 259.702 127.641 259.548 127.334C259.413 127.104 259.24 126.932 258.951 126.836C258.527 126.721 258.354 126.376 258.315 125.974C258.219 125.341 258.084 124.728 258.161 124.115C258.2 123.233 258.2 122.39 258.335 121.546C258.431 120.818 258.604 120.128 258.835 119.457C259.067 118.672 259.625 118.077 260.145 117.464C261.05 116.429 261.937 115.394 262.784 114.321C263.15 113.88 263.497 113.459 263.92 113.075C265.172 111.849 266.116 110.411 266.829 108.878C267.233 108.035 267.156 107.134 267.002 106.233C266.983 106.003 266.81 105.888 266.559 105.869C265.731 105.658 264.999 105.965 264.421 106.502C263.786 107.077 263.169 107.728 262.746 108.514C262.457 109.089 262.129 109.683 261.782 110.239C261.32 110.91 260.685 111.063 259.972 110.948C259.856 110.967 259.683 110.89 259.587 110.795C258.72 110.239 257.969 109.626 257.14 109.012C256.408 108.514 256.274 107.805 256.447 107C256.755 105.582 257.564 104.413 258.527 103.416C258.855 103.033 259.221 102.669 259.587 102.324C260.03 101.806 260.55 101.442 261.128 101.116C261.937 100.695 262.707 100.292 263.612 100.177C263.824 100.12 264.055 100.1 264.209 100.005C265.635 99.3721 268.408 99.9662 269.487 100.867C269.718 101.039 269.949 101.135 270.2 101.289C270.835 101.672 271.355 102.151 271.818 102.745C272.896 104.125 273.32 105.677 273.416 107.383C273.436 107.613 273.378 107.901 273.359 108.169C273.147 109.779 272.569 111.312 271.721 112.73C271.259 113.535 270.778 114.379 270.335 115.203C269.814 116.123 269.121 116.908 268.505 117.713C268.37 117.886 268.216 118.097 268.042 118.269C267.561 118.748 267.465 119.362 267.465 119.994C267.484 120.262 267.58 120.377 267.869 120.473C268.197 120.569 268.524 120.55 268.871 120.55C269.834 120.511 270.816 120.416 271.76 120.377C272.087 120.396 272.376 120.358 272.684 120.358C273.802 120.473 274.456 121.048 274.591 122.179C274.688 122.735 274.822 123.29 274.861 123.827C275.015 124.44 274.977 124.977 274.822 125.494ZM295.047 115.969C295.085 116.448 295.008 116.928 294.912 117.387C294.758 118.307 294.565 119.208 294.238 120.071C293.872 121.221 293.179 122.14 292.254 122.945C292.119 123.08 291.965 123.214 291.811 123.386C291.156 124.114 290.347 124.67 289.384 124.958C288.71 125.092 288.094 125.226 287.458 125.399L287.246 125.418C286.36 125.418 285.493 125.36 284.627 125.169C283.818 124.958 283.028 124.651 282.238 124.383C281.988 124.287 281.757 124.191 281.545 124.019C280.678 123.329 279.811 122.581 279.06 121.719C278.964 121.642 278.887 121.566 278.829 121.451C278.347 120.473 277.731 119.476 277.403 118.384C277.23 117.809 277.057 117.177 277.018 116.583C276.826 114.973 276.44 113.401 276.344 111.81C276.306 110.795 276.171 109.798 276.248 108.801C276.286 108.035 276.344 107.23 276.614 106.54C276.672 106.329 276.749 106.118 276.768 105.907C276.999 104.547 277.461 103.224 278.001 101.94C278.386 101.154 278.713 100.35 279.33 99.6979C279.407 99.6021 279.503 99.4488 279.619 99.3913C280.37 98.8738 281.121 98.3372 282.084 98.2605L285.936 97.9155C286.533 97.8197 287.689 97.9922 288.286 98.2605C289.211 98.7013 290.116 99.1038 290.829 99.8321C291.407 100.465 292.023 101.078 292.37 101.902C292.466 102.094 292.562 102.324 292.697 102.515C293.564 103.761 293.968 105.198 294.238 106.636C294.508 108.054 294.72 109.453 294.777 110.948C295.028 112.596 294.893 114.302 295.047 115.969ZM315.06 122.006C314.906 122.39 314.636 122.6 314.212 122.715C313.114 122.965 312.016 123.137 310.649 123.175C310.013 123.156 309.108 123.29 308.222 123.271C307.625 123.29 307.008 123.482 306.373 123.635C304.678 124.038 302.963 124.21 301.268 124.325C301.018 124.344 300.787 124.325 300.536 124.306C300.209 124.287 299.959 124.153 299.805 123.846C299.65 123.616 299.496 123.444 299.207 123.348C298.784 123.233 298.591 122.888 298.553 122.485C298.476 121.853 298.321 121.221 298.398 120.626C298.437 119.745 298.456 118.902 298.572 118.058C298.668 117.33 298.841 116.64 299.073 115.969C299.323 115.183 299.862 114.589 300.382 113.976C301.288 112.941 302.154 111.906 303.021 110.833C303.387 110.392 303.753 109.971 304.158 109.587C305.41 108.361 306.353 106.923 307.066 105.39C307.471 104.547 307.394 103.646 307.239 102.745C307.22 102.515 307.047 102.4 306.796 102.381C305.987 102.17 305.236 102.477 304.658 103.014C304.042 103.588 303.406 104.24 303.002 105.026C302.694 105.601 302.386 106.195 302.039 106.751C301.577 107.422 300.941 107.575 300.209 107.46C300.093 107.479 299.92 107.402 299.843 107.307C298.976 106.751 298.206 106.137 297.397 105.524C296.665 105.026 296.53 104.317 296.684 103.512C297.012 102.094 297.821 100.924 298.784 99.9279C299.111 99.5446 299.477 99.1804 299.843 98.8355C300.286 98.318 300.806 97.9539 301.384 97.6281C302.174 97.2064 302.963 96.804 303.869 96.689C304.061 96.6315 304.312 96.6123 304.447 96.5165C305.872 95.884 308.646 96.4781 309.724 97.3789C309.936 97.5514 310.186 97.6472 310.437 97.8005C311.072 98.1838 311.593 98.663 312.036 99.2571C313.114 100.637 313.538 102.189 313.654 103.895C313.673 104.125 313.615 104.413 313.596 104.681C313.384 106.291 312.787 107.824 311.959 109.242C311.516 110.047 311.034 110.89 310.572 111.715C310.052 112.634 309.377 113.42 308.761 114.225C308.607 114.398 308.472 114.609 308.28 114.781C307.798 115.26 307.702 115.873 307.721 116.506C307.74 116.774 307.817 116.889 308.106 116.985C308.434 117.081 308.761 117.062 309.108 117.062C310.071 117.023 311.053 116.928 312.016 116.889C312.344 116.908 312.613 116.87 312.941 116.87C314.077 116.985 314.732 117.56 314.867 118.691C314.963 119.247 315.079 119.802 315.117 120.339C315.233 120.933 315.214 121.47 315.06 122.006ZM331.258 107.153C331.22 107.153 331.22 107.153 331.22 107.153C331.278 108.706 331.374 110.239 331.47 111.753C331.47 112.232 331.509 112.711 331.605 113.19C331.817 114.8 331.894 116.391 332.029 117.982C332.048 118.748 332.029 119.457 332.106 120.205C332.164 120.761 331.913 121.086 331.316 121.221C330.835 121.355 330.334 121.431 329.814 121.47C329.024 121.489 328.215 121.604 327.425 121.508C326.828 121.451 326.135 120.876 326.039 120.243C325.865 119.266 325.692 118.269 325.519 117.253C325.442 116.774 325.326 116.276 325.114 115.816C324.825 115.183 324.324 114.838 323.669 114.743C323.304 114.666 322.899 114.666 322.533 114.647C321.531 114.609 320.491 114.666 319.528 114.915C318.816 115.107 318.238 114.896 317.718 114.474C317.159 114.034 316.716 113.612 316.427 112.999C316.177 112.462 315.849 111.964 315.599 111.427C315.387 110.91 315.291 110.373 315.503 109.875C315.946 108.476 316.003 107.077 316.254 105.658C316.389 104.892 316.523 104.068 316.639 103.301C316.774 102.439 316.812 101.576 316.947 100.733C317.063 99.9279 317.275 99.1804 317.621 98.4522C317.795 98.1264 317.872 97.6664 317.987 97.3022C318.007 97.1489 318.007 96.9764 318.064 96.8423C318.18 96.5165 318.122 96.0565 318.373 95.8649C318.777 95.6349 319.162 95.3282 319.682 95.2707L321.782 95.0791C322.148 95.0407 322.475 95.0982 322.783 95.0791C323.149 95.0407 323.4 95.1749 323.612 95.4432C324.016 95.9798 324.074 96.574 324.035 97.1681C323.958 98.0497 323.843 98.9696 323.727 99.8896C323.496 101.384 323.265 102.918 323.053 104.451C322.918 105.275 322.841 106.099 322.745 106.923C322.726 107.077 322.687 107.211 322.706 107.364C322.783 107.766 323.015 107.939 323.4 107.92C323.573 107.901 323.766 107.881 323.92 107.786C324.074 107.728 324.19 107.594 324.305 107.537C325.037 107.23 325.307 106.655 325.268 105.907C325.153 103.569 325.133 101.174 324.806 98.8163C324.767 98.4522 324.71 98.1072 324.633 97.8005C324.44 97.1298 324.44 96.4973 324.536 95.8457C324.594 95.3091 324.921 94.9066 325.461 94.8491C326.424 94.8108 327.348 94.4275 328.331 94.3891C329.178 94.3508 329.679 94.2741 329.968 95.5582C330.007 95.9223 330.084 96.3057 330.161 96.7081C330.353 98.6055 330.527 100.541 330.738 102.439C330.796 103.148 330.95 103.857 331.047 104.566L331.258 107.153ZM286.148 103.723C286.033 103.742 285.975 103.646 285.898 103.627C285.07 103.339 284.376 103.569 283.837 104.163C283.336 104.719 282.989 105.39 282.643 106.061C282.411 106.559 282.296 107.038 282.257 107.556C282.2 109.664 282.354 111.772 282.623 113.861C282.681 114.455 282.874 115.011 282.97 115.586C283.028 116.257 283.278 116.832 283.529 117.445C283.625 117.752 283.818 118.02 283.952 118.327C284.299 118.94 284.954 119.112 285.532 119.419C286.302 119.841 286.957 119.687 287.593 119.151C287.689 119.074 287.843 118.94 287.939 118.767C288.19 118.422 288.44 118.039 288.729 117.713C288.98 117.368 289.057 117.004 289.134 116.563C289.365 115.586 289.326 114.589 289.423 113.593C289.557 112.5 289.461 111.408 289.423 110.315C289.269 108.495 288.729 106.827 287.939 105.218C287.574 104.47 287.073 103.838 286.148 103.723ZM287.978 105.218C287.593 104.47 287.092 103.818 286.167 103.703C286.052 103.723 285.994 103.627 285.917 103.608C285.089 103.32 284.395 103.55 283.856 104.144C283.355 104.7 283.009 105.371 282.662 106.042C282.431 106.54 282.315 107.019 282.277 107.537C282.219 109.645 282.373 111.753 282.643 113.842C282.7 114.436 282.893 114.992 282.989 115.567C283.047 116.238 283.297 116.813 283.548 117.426C283.644 117.732 283.837 118.001 283.972 118.307C284.318 118.921 284.973 119.093 285.551 119.4C286.322 119.821 286.976 119.668 287.612 119.132C287.708 119.055 287.862 118.921 287.959 118.748C288.209 118.403 288.46 118.02 288.748 117.694C288.999 117.349 289.076 116.985 289.153 116.544C289.384 115.567 289.346 114.57 289.442 113.574C289.577 112.481 289.48 111.389 289.442 110.296C289.288 108.495 288.748 106.827 287.978 105.218ZM287.978 105.218C287.593 104.47 287.092 103.818 286.167 103.703C286.052 103.723 285.994 103.627 285.917 103.608C285.089 103.32 284.395 103.55 283.856 104.144C283.355 104.7 283.009 105.371 282.662 106.042C282.431 106.54 282.315 107.019 282.277 107.537C282.219 109.645 282.373 111.753 282.643 113.842C282.7 114.436 282.893 114.992 282.989 115.567C283.047 116.238 283.297 116.813 283.548 117.426C283.644 117.732 283.837 118.001 283.972 118.307C284.318 118.921 284.973 119.093 285.551 119.4C286.322 119.821 286.976 119.668 287.612 119.132C287.708 119.055 287.862 118.921 287.959 118.748C288.209 118.403 288.46 118.02 288.748 117.694C288.999 117.349 289.076 116.985 289.153 116.544C289.384 115.567 289.346 114.57 289.442 113.574C289.577 112.481 289.48 111.389 289.442 110.296C289.288 108.495 288.748 106.827 287.978 105.218Z" fill="white"/>
</svg>
