<svg width="276" height="251" viewBox="0 0 276 251" fill="none" xmlns="http://www.w3.org/2000/svg">
<path d="M276 125.901C276 130.661 275.86 135.321 275.56 139.881C271.28 207.061 234.46 250.901 138 250.901C86.2596 250.901 47.6596 231.561 24.6396 201.581C13.2396 186.76 5.65957 169.341 2.19957 150.381C0.739573 142.461 -0.000427246 134.281 -0.000427246 125.901C-0.000427246 42.9005 61.7796 0.900513 138 0.900513C182.26 0.900513 218.2 16.4405 242.28 41.2405C263.92 63.5205 276 93.2405 276 125.901Z" fill="#F5F2FC"/>
<path d="M276 125.901C276 130.661 275.86 135.321 275.56 139.881C271.28 207.061 234.46 250.901 138 250.901C86.2596 250.901 47.6596 231.561 24.6396 201.581C13.2396 186.761 5.65959 169.341 2.19959 150.381C20.9996 142.581 41.8996 136.381 59.9996 136.901C103.42 138.141 119.94 184.661 163 178.901C223.22 170.841 195.6 62.1605 242.28 41.2405C263.92 63.5205 276 93.2405 276 125.901Z" fill="#EDE8F9"/>
<path d="M275.56 139.88C271.28 207.06 234.46 250.9 138 250.9C86.2596 250.9 47.6596 231.56 24.6396 201.58C44.8796 192.86 66.5996 186.14 85.9996 185.9C132.2 185.3 153.28 227.48 199 220.9C233.88 215.881 255.38 162.36 275.56 139.88Z" fill="#E7E1F7"/>
</svg>
