<svg width="51" height="55" viewBox="0 0 51 55" fill="none" xmlns="http://www.w3.org/2000/svg">
<path d="M30.6299 25.9156C30.3881 26.3343 30.1391 26.7372 29.8811 27.1231C26.0924 32.8158 20.6264 34.8025 12.1405 29.9031C7.58867 27.2751 5.17519 23.6131 4.67277 19.8064C4.4226 17.9236 4.64055 16.0061 5.29917 14.1624C5.573 13.3915 5.92338 12.6343 6.34901 11.897C10.5647 4.59518 18.133 4.03819 24.8384 7.90955C28.7322 10.1576 31.1046 13.3502 31.9634 16.755C32.7355 19.8142 32.2887 23.0424 30.6299 25.9156Z" fill="#F5F2FC"/>
<path d="M48.9414 43.7433C49.0112 44.0039 49.0719 44.2611 49.1224 44.5151C49.8734 48.2553 48.5009 51.1951 43.2207 52.6099C40.3885 53.3688 37.9919 52.8763 36.292 51.5729C35.4506 50.9288 34.7802 50.0865 34.3127 49.0993C34.1166 48.6872 33.9561 48.2503 33.8332 47.7916C32.6158 43.2482 35.3816 40.0429 39.5539 38.925C41.9766 38.2758 44.1719 38.5993 45.8538 39.6037C47.3652 40.5059 48.4623 41.9555 48.9414 43.7433Z" fill="#F5F2FC"/>
</svg>
