<svg width="351" height="145" viewBox="0 0 351 145" fill="none" xmlns="http://www.w3.org/2000/svg">
<g clip-path="url(#clip0_139_558)">
<path d="M1.88593 50.6348C1.01916 45.9393 0.826545 41.2438 1.11547 36.5483C1.11547 36.0691 1.30808 35.6858 1.40439 35.3025C1.5007 34.5359 1.98223 34.0568 2.75269 33.8651C3.81207 33.5776 4.87145 33.2902 5.83453 32.9069C6.99021 32.6194 8.1459 32.5236 9.30159 32.6194C10.7462 32.811 12.2871 33.0985 13.7317 33.386C14.5985 33.4818 14.9837 33.961 15.1763 34.7276C15.2726 35.1109 15.2726 35.3984 15.2726 35.7817C15.1763 38.7523 15.6579 41.8187 15.7542 44.7894C15.7542 45.9393 15.8505 47.0892 16.1394 48.1433C16.6209 50.1556 18.2582 51.4972 20.1843 51.6889C21.1474 51.8805 21.9178 51.4972 22.4957 50.8264C23.2661 49.6765 23.844 48.4308 24.0366 47.0892C24.5181 43.9269 25.096 40.7646 24.9997 37.5065C24.8071 35.1109 24.6145 32.811 25.1923 30.4154C25.2886 30.2237 25.2886 30.0321 25.2886 29.7446C24.7108 28.0197 24.9997 26.1032 24.4218 24.2825C24.1329 23.1326 24.0366 21.8868 23.7477 20.7369C23.4588 19.6828 22.8809 18.9162 22.3994 18.0538C21.9178 17.383 21.2437 16.808 20.3769 16.6164C19.3175 16.3289 18.2582 16.0414 17.1988 15.6581C16.6209 15.4664 16.1394 15.4664 15.5616 15.5623C13.1539 16.0414 10.8425 15.9456 8.43482 15.7539C8.24221 15.7539 8.04959 15.7539 7.85698 15.6581C6.50868 15.2748 4.58253 13.0708 4.58253 11.6334C4.48622 9.14189 4.48622 6.65041 5.06407 4.25474C5.35299 3.009 6.31606 2.24239 7.37544 1.85908C8.91636 1.28412 10.4573 0.804989 12.1908 0.900816C15.1763 0.996642 18.2582 0.900816 21.2437 0.900816C21.8215 0.900816 22.3994 0.900816 22.9772 0.804989C26.1554 0.134204 29.3335 0.51751 32.4153 0.709163C33.2821 0.709163 34.1489 0.804989 35.0156 0.900816C36.2676 0.996642 37.2307 1.5716 37.8086 2.62569C38.579 4.06309 39.0605 5.50049 39.0605 7.12954C39.1569 10.0043 39.1569 12.8791 39.1569 15.7539V33.5777C39.0605 37.794 39.0605 42.0104 39.0605 46.2267C38.9642 48.5266 38.7716 50.8264 38.2901 53.0304C37.7122 55.0428 37.1344 57.151 36.2676 59.0675C35.2083 61.4632 33.2821 62.9964 31.2597 64.338C31.1633 64.5296 30.9707 64.6254 30.6818 64.6254C28.6594 65.2004 26.5406 65.8712 24.4218 66.1587C22.3031 66.4461 19.9917 66.4461 17.7766 66.6378C14.0206 66.8294 10.9388 65.3921 8.33851 62.8047C6.89391 61.3673 5.4493 59.9299 4.29361 58.3009C3.81207 57.5343 3.33054 56.7677 3.13792 55.8094C2.65638 54.0845 2.17485 52.3596 1.88593 50.6348Z" fill="white"/>
<path d="M90.3151 23.0752C90.2188 22.6919 90.1225 22.2128 89.9299 21.8295C89.0631 19.5297 87.7148 17.4215 86.2702 15.3133C85.4035 13.9717 84.2478 12.8218 82.7069 12.2469C82.4757 12.151 82.2253 12.0744 81.9942 11.9785C80.877 14.0676 79.7406 16.1182 78.5656 18.1689C77.7759 19.6063 76.9862 21.1012 76.4084 22.6728C76.1965 23.4011 75.8305 24.1102 75.4068 25.1068C77.5641 24.3977 79.2205 23.746 80.9348 23.1711C82.3024 22.5961 83.747 22.1745 85.1145 21.5995C85.5383 21.4654 85.9813 21.3887 86.4051 21.3887C86.9829 21.3887 87.4837 22.0403 87.3489 22.5386C87.1948 23.0369 87.0599 23.5352 86.9059 23.9569C86.1161 25.8925 84.8256 27.5408 83.747 29.2656C82.2446 31.623 80.7229 34.057 79.1435 36.3568C78.1419 37.775 77.121 39.2891 76.2735 40.7073C73.5962 45.1537 70.8611 49.4467 68.4919 53.9505C68.2608 54.3913 68.0104 54.8321 67.7792 55.273C69.0505 55.6563 70.3795 55.8096 71.8241 55.6563C72.4983 55.5604 73.2687 55.5604 73.9429 55.6563C77.3137 56.1354 80.2029 54.7938 82.8995 53.1648C84.3441 52.3023 85.5961 51.0566 86.8481 49.9067C87.9075 48.8526 88.9668 47.7027 89.641 46.3611C90.6041 44.5404 91.2782 42.6239 91.5671 40.5157C91.7598 38.695 91.9524 36.9701 91.8561 35.4369C91.8561 31.0288 91.4708 27.0041 90.3151 23.0752ZM60.2287 32.7729C61.3074 29.0548 62.386 25.4709 63.3876 21.8103C64.1773 19.0889 64.9671 16.4441 65.7568 13.6651C66.4887 11.3652 66.9125 11.0011 69.3587 11.0011C70.8033 11.0011 72.1708 10.6561 73.6732 10.4453C73.8273 10.407 74.0007 10.3878 74.174 10.3495C71.9782 10.1387 69.7824 10.6561 67.5866 11.0011C67.2014 11.0969 66.9125 11.1928 66.6235 11.3844C64.89 12.2469 63.2528 13.1093 61.7119 14.1634C58.4374 16.3674 56.3187 19.338 55.3556 23.1711C54.4888 26.1417 54.0073 29.0165 53.6221 32.0829C53.2368 34.8619 53.3331 37.6409 54.3925 40.324C55.9334 44.0613 57.667 47.7027 60.6525 50.7691C61.6541 51.7657 62.5786 52.7815 63.8306 53.5289C64.2159 52.4365 64.6203 51.3441 65.0441 50.3091C65.8338 48.4501 66.5465 46.5144 67.1243 44.5021C67.4903 43.3713 67.9911 42.1447 68.4919 40.9948C69.1468 39.1358 69.8595 37.3534 70.5721 35.4944C70.2832 35.0536 69.9365 35.2069 69.6476 35.341C68.7808 35.7052 67.8563 36.1268 66.9125 36.5676C65.1212 37.4301 63.0216 37.6409 61.0762 37.6409H60.5177C59.6509 37.4876 59.2079 36.9126 59.439 35.9927C59.6509 34.9194 59.9398 33.8461 60.2287 32.7729Z" fill="white"/>
<path d="M102.354 27.5981C101.872 23.9567 101.198 20.4112 99.5608 17.0572C98.983 15.9073 98.1162 14.7574 97.4421 13.6075C95.8048 10.3494 93.2045 7.85789 90.4116 5.55805C87.8113 3.35404 84.6332 1.82082 81.1661 1.15003C80.1068 0.862554 78.9511 0.479248 77.7954 0.479248C76.2545 0.575075 74.6172 0.575075 72.7874 0.575075C71.4391 0.670901 69.8019 0.766728 68.0683 0.575075C67.5868 0.479248 67.009 0.575075 66.6237 0.766728C64.8902 1.53334 62.9641 1.72499 61.2305 2.20412C59.2081 2.77908 57.5709 3.929 56.0299 5.17475C54.9706 5.94136 54.0075 6.89962 52.9481 7.76206C51.985 8.52867 51.022 9.29529 50.3478 10.3494C49.2884 11.8826 48.229 13.4158 47.3623 15.0449C45.5324 18.2071 44.3768 21.5611 43.7989 25.1067C43.1248 29.6105 42.8358 34.1143 43.7026 38.5224C44.0878 40.1514 44.4731 41.7805 44.762 43.4095C44.9546 44.4636 45.3398 45.4219 45.8214 46.3801C47.4586 50.0215 49.77 53.088 52.4666 55.867C55.741 59.3167 59.497 62.0957 64.1197 63.7247C65.4681 64.2997 67.009 64.5872 68.4536 64.9705C70.8613 65.5454 73.2689 65.7371 75.6766 65.3538C76.4471 65.2579 77.3139 65.1621 78.0843 65.1621C79.7215 65.258 81.1661 64.8746 82.7071 64.4913C84.8258 64.0122 86.463 62.5748 88.2929 61.6166C89.256 61.1374 90.219 60.4666 91.0858 59.7C92.723 58.1668 94.1676 56.4419 95.6122 54.8129C96.6716 53.6629 97.4421 52.4172 98.3088 51.1715C99.6571 49.2549 100.235 47.0509 100.909 44.8469C101.68 42.3554 102.354 39.6723 102.354 37.085C102.45 33.9227 102.643 30.7604 102.354 27.5981ZM67.5676 55.6753C67.3364 55.8861 67.1245 56.1736 66.8356 56.4611C65.6799 57.611 64.9673 57.611 63.7538 56.5377C63.3108 56.1736 63.0989 55.8286 63.2337 55.2537C63.4263 54.6787 63.6382 54.1038 63.8308 53.5288C64.2161 52.4364 64.6205 51.3439 65.0443 50.309C65.834 48.45 66.5467 46.5143 67.1245 44.5019C67.4905 43.3712 67.9913 42.1446 68.4921 40.9947C69.147 39.1357 69.8597 37.3533 70.5723 35.4942C70.2834 35.0534 69.9367 35.2068 69.6478 35.3409C68.781 35.7051 67.8565 36.1267 66.9127 36.5675C65.1213 37.4299 63.0218 37.6408 61.0764 37.6408H60.5179C59.6511 37.4874 59.2081 36.9125 59.4392 35.9925C59.6511 34.9193 59.94 33.846 60.2289 32.7728C61.3076 29.0547 62.3862 25.4708 63.3878 21.8102C64.1775 19.0888 64.9673 16.4439 65.757 13.665C66.4889 11.3651 66.9127 11.001 69.3589 11.001C70.8035 11.001 72.171 10.656 73.6734 10.4452C73.8275 10.4069 74.0009 10.3877 74.1742 10.3494C75.2529 10.1577 76.37 9.96607 77.5642 9.71692C78.431 9.58276 79.3556 9.29528 80.2994 9.08447C80.8772 8.93114 81.301 8.72033 81.8788 8.72033C82.6685 8.64367 83.1693 9.35278 83.0345 10.1577C82.9575 10.2919 82.8804 10.4452 82.7456 10.5794C82.4952 11.0585 82.2448 11.5185 81.9944 11.9784C80.8772 14.0674 79.7408 16.1181 78.5658 18.1688C77.7761 19.6062 76.9864 21.1011 76.4086 22.6727C76.1967 23.4009 75.8307 24.1101 75.407 25.1067C77.5643 24.3975 79.2207 23.7459 80.935 23.171C82.3026 22.596 83.7472 22.1744 85.1147 21.5994C85.5385 21.4653 85.9815 21.3886 86.4053 21.3886C86.9831 21.3886 87.4839 22.0402 87.3491 22.5385C87.195 23.0368 87.0601 23.5351 86.9061 23.9567C86.1163 25.8924 84.8258 27.5406 83.7472 29.2655C82.2448 31.6229 80.7231 34.0568 79.1437 36.3567C78.1421 37.7749 77.1212 39.289 76.2737 40.7072C73.5964 45.1536 70.8613 49.4466 68.4921 53.9504C68.261 54.3912 68.0106 54.832 67.7794 55.2728C67.7024 55.407 67.6446 55.5411 67.5676 55.6753Z" fill="white"/>
<path d="M135.561 66.1588C134.02 66.8296 132.479 66.8296 130.938 66.3505C129.782 66.063 128.626 65.7755 127.374 65.7755C122.944 65.6797 118.803 64.6256 114.951 62.4216C114.566 62.23 114.18 61.9425 113.795 61.5592C112.351 60.2176 111.099 58.5886 110.135 56.7678C108.595 53.9889 107.535 50.9224 107.439 47.6643C107.246 43.5438 106.957 39.5191 106.668 35.3985C106.572 32.3321 106.476 29.1698 106.572 26.0075C106.668 23.7077 106.572 21.4079 106.765 19.108C107.054 15.275 107.054 11.4419 107.054 7.51303C107.15 6.36311 107.15 5.11737 107.535 3.96745C107.824 3.10501 108.209 2.43422 109.076 1.95509C109.943 1.47596 110.906 1.09265 111.869 0.996827C114.18 0.901 116.492 0.996827 118.803 1.28431C119.574 1.28431 120.151 1.76344 120.344 2.53005C120.633 3.20084 120.922 3.96745 120.922 4.82989V6.55476L120.537 16.8082C120.537 19.9705 120.633 23.1327 120.633 26.295C120.633 31.3738 120.633 36.5485 120.826 41.7231C120.922 43.2563 121.115 44.8854 121.403 46.4186C121.692 47.7602 122.174 49.0059 122.848 50.1558C123.522 51.3057 124.485 51.9765 125.737 52.264C128.434 52.7431 131.13 52.6473 133.634 51.4974C135.464 50.7308 136.716 49.1976 137.294 47.281C138.642 43.0647 138.931 38.6566 138.835 34.3444C138.835 30.7989 138.739 27.3491 138.546 23.8035C138.546 21.4079 138.161 19.108 138.257 16.7124C138.546 12.4002 138.354 8.18381 138.065 3.87162C137.968 2.14674 138.835 1.09265 140.472 0.901C142.302 0.613521 144.132 0.421868 146.058 0.709347C147.31 0.901 148.658 0.805174 149.91 0.805174C151.548 0.901 152.029 1.38013 152.318 3.00918C152.414 3.39249 152.414 3.77579 152.414 4.06327C152.511 7.12972 152.703 10.1003 152.318 13.071C152.222 13.7418 152.125 14.4125 152.222 14.9875C152.222 19.108 152.029 23.2286 152.125 27.2533C152.222 30.8947 152.029 34.4403 152.029 37.9859C152.029 40.3815 152.125 42.7772 151.644 45.077C151.259 46.7061 151.259 48.4309 150.873 50.1558C150.585 51.5932 150.103 53.0306 149.525 54.468C148.369 56.9595 147.117 59.3552 145.48 61.5592C145.095 62.0383 144.613 62.5174 144.132 62.9007C142.591 63.7632 141.243 64.9131 139.317 65.1048C138.065 65.2006 136.716 65.6797 135.561 66.1588Z" fill="white"/>
<path d="M178.995 56.0969C178.706 54.8511 178.321 53.6054 177.84 52.3596C177.262 50.6348 176.299 49.8681 174.758 49.964C173.217 50.0598 172.061 51.0181 171.483 52.3596C171.291 52.9346 171.194 53.5095 171.098 54.0845C171.002 55.1386 171.098 56.1927 171.002 57.2468V63.2839C171.098 64.2421 170.617 65.0087 170.039 65.7753C169.654 66.3503 169.076 66.6378 168.402 66.6378C166.283 66.6378 164.26 66.7336 162.142 66.6378C160.986 66.6378 160.023 66.2545 159.349 65.2962L158.771 64.6254C157.423 63.763 157.037 62.4214 156.845 60.984C156.652 59.6424 156.556 58.3009 156.652 56.9593L156.845 43.8311H156.941V31.182C156.941 30.1279 157.037 29.0738 157.037 28.0197C157.037 27.3489 157.134 26.6781 157.037 26.0073C156.556 22.1743 156.845 18.1496 156.748 14.2207C156.652 11.5375 156.748 8.8544 156.652 6.07543C156.652 5.30882 156.845 4.63803 157.134 3.87142C157.711 2.14655 158.771 1.18828 160.504 0.804974C162.238 0.517495 163.971 0.230015 165.801 0.230015C167.15 0.230015 168.402 0.230015 169.654 0.134189C172.832 -0.0574641 175.914 -0.0574641 178.995 0.325842C179.477 0.421668 180.055 0.421668 180.633 0.421668C182.655 0.421668 184.485 0.804974 186.218 1.85907C187.278 2.43402 188.433 2.81733 189.589 3.39229C191.612 4.35055 192.96 5.88378 194.212 7.70448C195.753 10.0043 196.812 12.5916 197.101 15.4664C197.583 19.2995 197.872 23.2284 197.872 27.1573C197.775 29.8404 197.294 32.4277 196.042 34.8234C195.079 36.7399 194.116 38.6564 192.767 40.3813C191.804 41.6271 191.515 43.0645 191.708 44.5977C192.093 46.8975 192.96 49.1015 194.308 50.9222C194.886 51.8805 195.753 52.6471 196.908 53.1262C199.316 53.9887 200.087 55.7136 199.99 58.1092C199.894 59.7383 199.99 61.4631 200.087 63.0922C200.087 64.1463 199.99 65.2004 199.605 66.2545C199.412 66.9253 198.931 67.3086 198.257 67.4044C196.716 67.596 195.079 67.8835 193.538 67.6919C191.419 67.3086 189.3 67.2127 187.278 66.2545C185.641 65.4879 184.292 64.2421 183.04 62.9964C180.921 61.0798 179.573 58.8758 178.995 56.0969ZM182.462 26.0073C183.425 22.9409 183.714 19.8744 181.981 16.9038C181.499 16.1372 180.921 15.5623 180.151 15.179C178.321 14.3165 176.491 14.029 174.469 14.604C173.602 14.8915 172.928 15.2748 172.543 16.1372C171.772 18.0537 171.098 19.8744 171.387 21.9826C171.483 22.6534 171.387 23.2284 171.387 23.8992C171.387 25.0491 171.483 26.199 171.387 27.3489C171.194 28.7863 171.965 29.7446 172.735 30.7987L173.602 31.5653C174.758 32.6194 175.528 32.7152 176.877 31.9486C177.743 31.4695 178.61 30.7987 179.477 30.1279C180.921 29.0738 181.981 27.7322 182.462 26.0073Z" fill="white"/>
<path d="M251.322 3.48814C251.707 4.54223 251.803 5.5005 251.707 6.65041C251.514 9.23773 250.937 11.9209 251.033 14.5082V17.2872C251.033 17.8621 251.129 18.3412 251.033 18.8204C250.551 22.2701 250.84 25.7199 250.648 29.1696L250.359 33.1944C250.07 36.2608 250.359 39.3273 250.359 42.3937C250.262 45.1727 250.359 47.8558 250.359 50.539C250.359 53.9887 250.262 57.4385 250.262 60.8882C250.262 61.9423 250.262 62.9006 249.877 63.8588C249.203 65.2962 248.433 65.8712 246.892 65.8712C245.543 65.7754 244.291 65.7754 243.039 65.7754C242.269 65.7754 241.787 65.5837 241.209 65.2004C239.476 64.0505 238.128 62.4214 236.683 60.984C235.816 60.2174 235.431 59.0675 234.853 58.0134C233.312 55.5219 231.771 53.0304 230.327 50.539L229.46 49.0057C228.978 47.6642 228.208 46.5142 227.341 45.3643C226.474 44.2144 225.8 42.8728 225.126 41.6271L224.067 39.8064C223.2 38.4648 221.274 38.2732 220.214 39.5189C219.926 39.9022 219.637 40.3813 219.54 40.8605C218.962 42.4895 218.577 44.1186 218.577 45.9393C218.674 48.6224 218.866 51.3056 218.577 53.7012L218.77 59.4508V63.2839C218.77 64.0505 218.481 64.6254 218.192 65.2962C217.903 65.7754 217.518 66.0628 217.036 66.2545C216.362 66.4461 215.688 66.6378 214.918 66.542C212.991 66.542 211.065 66.4461 209.139 66.542C207.502 66.542 206.635 65.5837 205.672 64.5296C205.479 64.338 205.479 63.9547 205.383 63.5713C205.287 62.5173 205.191 61.4632 205.191 60.3133C205.191 58.5884 204.998 56.7677 204.998 55.0428C205.094 51.0181 205.287 46.9934 205.287 42.9687C205.287 39.0398 205.287 35.1109 205.191 31.182C205.191 30.0321 204.998 28.8822 204.805 27.7322C204.131 23.8034 204.131 19.7786 204.324 15.7539C204.42 15.179 204.42 14.5082 204.324 13.8374C203.939 11.2501 204.131 8.7586 204.131 6.17128C204.227 4.63806 204.902 3.39231 205.672 2.24239C205.961 1.85909 206.346 1.57161 206.635 1.37996C208.947 0.613344 211.258 0.0383853 213.666 0.709171C215.399 1.09248 216.747 1.95492 217.807 3.48814C219.54 5.78798 220.985 8.18364 222.333 10.771C223.104 12.0167 224.067 13.1666 224.837 14.5082C226.378 16.9997 228.015 19.3953 229.653 21.791C230.327 22.7493 231.097 23.6117 231.964 24.4741C232.349 24.8574 232.831 25.1449 233.409 25.3366C234.468 25.8157 235.624 25.4324 235.913 24.2825C236.587 22.1743 236.972 20.0661 236.779 17.9579C236.587 16.3289 236.587 14.6998 236.779 12.975C237.068 10.6751 236.683 8.27946 236.683 5.97963L236.49 4.4464C236.49 2.81735 237.068 1.95492 238.513 1.28413C239.957 0.709171 241.498 0.613344 243.039 0.613344C244.965 0.613344 246.892 0.804997 248.818 1.1883C250.166 1.37996 250.937 2.24239 251.322 3.48814Z" fill="white"/>
<path d="M260.953 66.0629C259.219 66.0629 257.775 65.3921 257.101 63.6672C256.523 62.3257 256.041 60.9841 256.137 59.4509C256.137 57.6302 256.137 55.7136 256.234 53.8929C256.33 51.4973 256.426 49.1974 256.234 46.8018C255.945 44.3103 256.041 41.8188 256.137 39.3273V25.145C256.137 23.1326 256.137 21.1203 256.041 19.2037C255.849 16.6164 255.752 14.0291 255.945 11.4418C256.137 10.2919 256.041 9.14196 256.041 7.99205C256.041 6.84213 256.33 5.59638 256.715 4.44647C257.582 2.0508 259.412 0.996713 261.82 0.900887C264.035 0.80506 266.346 0.900887 268.561 0.900887C269.909 0.900887 271.258 0.900887 272.606 0.709234C273.665 0.613407 274.821 0.613407 275.88 0.80506C276.458 0.900887 277.036 0.900887 277.614 0.900887L290.904 0.325928H292.253C293.986 0.325928 295.046 1.18837 295.623 2.72159C295.623 2.81742 295.72 2.91324 295.72 2.91324C296.394 5.88386 296.49 8.85449 295.72 11.8251C295.431 12.975 294.757 13.55 293.697 13.9333C292.638 14.3166 291.579 14.6041 290.423 14.5082C287.148 14.5082 283.97 14.6999 280.696 14.3166C278.866 14.1249 277.036 14.3166 275.399 14.7957C273.473 15.3707 271.932 16.6164 271.643 18.8204C271.45 19.7787 271.547 20.6411 271.643 21.5994C271.932 23.0368 272.702 24.0909 274.147 24.4742C276.073 25.0492 277.903 25.6241 279.925 25.4325C281.274 25.4325 282.622 25.4325 283.97 25.3366C285.03 25.3366 286.089 25.4325 287.148 25.7199C289.075 26.2949 290.23 27.4448 290.327 29.3614C290.423 31.4695 290.423 33.5777 290.134 35.7817C289.941 37.6983 288.978 38.6565 287.052 39.0398C284.837 39.519 282.622 39.7106 280.407 39.6148C278.192 39.519 276.169 40.0939 274.051 40.7647C273.184 41.0522 272.702 41.723 272.221 42.4896C271.45 44.2145 271.354 46.131 271.45 47.9517C271.547 49.3891 272.991 50.6348 274.34 50.7307C275.11 50.7307 275.88 50.9223 276.651 51.0181C277.807 51.3056 278.962 51.3056 280.118 51.2098C281.659 51.0181 283.296 51.0181 284.837 51.114C286.474 51.2098 288.208 51.114 289.845 51.114C290.712 51.114 291.579 51.2098 292.445 51.2098C294.564 51.2098 295.816 52.4555 296.683 54.2762C297.742 56.7677 297.453 59.3551 296.972 61.8465C296.875 62.3257 296.683 62.709 296.587 63.0923C296.394 63.8589 296.009 64.4339 295.335 64.8172C295.046 65.0088 294.757 65.2005 294.468 65.4879C293.986 66.0629 293.312 66.2546 292.542 66.2546C290.23 66.4462 287.823 66.9253 285.511 66.3504C285.126 66.2546 284.644 66.4462 284.163 66.4462C283.489 66.4462 282.718 66.542 282.044 66.4462C278.866 65.8712 275.592 66.0629 272.413 66.4462C270.006 66.7337 267.694 66.7337 265.287 66.542C263.842 66.3504 262.397 66.1587 260.953 66.0629Z" fill="white"/>
<path d="M326.056 14.1251C327.115 14.0292 327.982 13.7418 328.753 12.7835C329.427 11.9211 330.197 11.1544 330.679 10.1962L333.857 4.35076C334.146 3.87163 334.531 3.29667 335.013 2.81753C336.168 1.47596 337.613 0.613525 339.443 0.613525C340.984 0.613525 342.525 0.613525 343.969 0.901005C344.932 1.09266 345.799 1.09266 346.762 1.09266C347.629 1.09266 348.496 1.18848 349.266 1.38014C350.614 1.66762 351 2.24258 351 3.48832C351 4.25493 350.807 4.92572 350.614 5.5965C349.94 7.80051 348.688 9.71704 347.436 11.6336C346.473 13.3584 345.317 14.8917 344.258 16.5207C343.295 18.0539 342.332 19.683 341.273 21.2162C339.732 23.4202 338.287 25.7201 336.842 28.0199C334.627 31.853 333.375 35.8777 333.472 40.2857C333.568 44.3104 333.857 48.2393 333.664 52.264V57.4386C333.664 58.876 333.472 60.8884 333.472 62.9966C333.375 63.7632 333.183 64.3381 332.509 64.8173L331.642 65.7755C331.449 66.063 331.064 66.2547 330.775 66.2547C329.33 66.3505 327.886 66.7338 326.441 66.3505C326.345 66.2547 326.249 66.2547 326.152 66.2547C326.056 66.2547 326.056 66.2547 325.96 66.3505C324.515 66.7338 323.071 66.3505 321.626 66.2547C321.337 66.2547 320.952 66.063 320.759 65.7755L319.892 64.8173C319.218 64.3381 319.026 63.7632 318.929 62.9966C318.929 60.8884 318.737 58.876 318.737 57.4386V52.264C318.544 48.2393 318.833 44.3104 318.929 40.2857C319.026 35.8777 317.774 31.853 315.559 28.0199C314.114 25.7201 312.669 23.4202 311.128 21.2162C310.069 19.683 309.106 18.0539 308.143 16.5207C307.083 14.8917 305.928 13.3584 304.965 11.6336C303.713 9.71704 302.461 7.80051 301.787 5.5965C301.594 4.92572 301.401 4.25493 301.401 3.48832C301.401 2.24258 301.787 1.66762 303.135 1.38014C303.905 1.18848 304.772 1.09266 305.639 1.09266C306.602 1.09266 307.469 1.09266 308.432 0.901005C309.876 0.613525 311.417 0.613525 312.958 0.613525C314.788 0.613525 316.233 1.47596 317.388 2.81753C317.87 3.29667 318.255 3.87163 318.544 4.35076L321.722 10.1962C322.204 11.1544 322.974 11.9211 323.648 12.7835C324.322 13.6459 325.093 14.0292 326.056 14.1251Z" fill="white"/>
<path d="M16.2363 137.78C16.4289 138.738 16.2363 139.504 16.0436 140.367C15.851 141.325 15.2732 141.9 14.4064 142.092C13.5397 142.379 12.6729 142.475 11.8061 142.475C9.78367 142.475 7.66491 142.571 5.54615 142.571C4.87199 142.571 4.29415 142.379 3.71631 142.188C2.56062 141.9 2.07908 141.229 1.88647 140.079C1.79016 139.504 1.79016 138.834 1.79016 138.163C1.69385 133.084 1.69385 128.005 1.69385 122.926H1.88647C1.88647 118.231 1.69385 113.535 1.88647 108.84C2.07908 105.869 1.88647 102.803 1.79016 99.8323C1.79016 95.9034 1.69385 91.9745 1.59755 88.0456C1.59755 87.7581 1.69385 87.4707 1.59755 87.1832C1.11601 85.2667 1.40493 83.3501 1.50124 81.4336C1.50124 80.5712 1.40493 79.7087 1.40493 78.8463C1.40493 77.5047 1.59755 77.1214 2.94585 77.0256C3.90892 76.9298 4.872 76.5464 5.83507 76.5464C7.66491 76.6423 9.39844 76.5464 11.2283 76.5464C11.9987 76.6423 12.7692 77.0256 13.5397 77.2172C14.6953 77.5047 15.2732 78.3672 15.4658 79.5171C15.5621 80.2837 15.5621 81.2419 15.4658 82.0086L14.7916 100.024C14.7916 102.42 14.9843 104.815 15.7547 107.019C16.3326 108.744 17.3919 109.894 19.2218 110.469C21.0516 110.948 22.8815 111.14 24.8076 111.14C25.867 111.14 26.7338 110.661 27.5042 109.99C29.623 107.978 30.586 105.582 30.7787 102.803C30.7787 101.845 30.875 100.886 30.9713 100.024C31.1639 98.6824 31.2602 97.245 30.9713 95.9034C30.6824 94.1785 30.6824 92.3578 30.6824 90.6329C30.586 88.4289 30.2008 86.2249 30.2971 83.9251C30.2971 82.296 30.3934 80.5712 30.2971 78.8463C30.2971 77.7922 30.875 77.2172 31.7417 76.9298C32.3196 76.7381 32.9937 76.5464 33.5716 76.4506C35.0162 76.3548 36.4608 76.3548 37.9054 76.6423C38.6759 76.8339 39.4463 76.8339 40.2168 76.8339C40.9872 76.8339 41.6614 76.9298 42.4318 77.0256C43.5875 77.2172 44.358 77.888 44.7432 78.9421C45.0321 79.8045 45.3211 80.5712 45.3211 81.4336C45.4174 83.3501 45.5137 85.3625 45.2248 87.279C44.8395 89.7705 44.5506 92.3578 44.2617 94.9451C43.8764 97.3408 43.8764 99.9281 43.8764 102.42C43.8764 106.636 44.0691 110.852 44.1654 115.069L44.4543 118.039C44.7432 121.106 44.7432 124.172 44.6469 127.239C44.6469 129.251 44.7432 131.263 44.7432 133.276C44.8395 135.671 44.4543 138.067 43.5875 140.367C43.2986 141.133 42.9134 141.613 42.1429 141.804C41.4688 141.9 40.8909 142.188 40.2168 142.283C39.0611 142.475 37.9054 142.379 36.846 142.954C34.8236 142.954 32.8011 142.858 30.9713 141.9C30.2971 141.517 29.9119 140.942 29.8156 139.984C29.7193 137.684 29.623 135.288 29.4304 132.988C29.334 131.647 29.1414 130.401 28.9488 129.155C28.8525 128.005 28.1784 127.334 27.0227 127.239C26.3485 127.239 25.6744 127.143 25.0965 127.143C24.2298 127.239 23.363 127.334 22.4962 127.143C21.4368 126.951 20.4738 127.334 19.607 127.718C18.9329 128.005 18.355 128.484 18.0661 129.155C16.6215 131.838 15.851 134.713 16.2363 137.78Z" fill="white"/>
<path d="M60.6334 143.242L51.9658 142.571C50.2323 142.379 49.2692 140.846 49.4618 139.025C49.6544 136.438 50.6175 133.946 51.099 131.359C51.7732 128.005 52.9289 124.747 53.7956 121.393C53.8919 120.722 54.0846 120.052 54.2772 119.285C54.5661 117.848 54.855 116.41 55.7218 115.069C56.0107 114.589 56.2033 114.015 56.3959 113.535L58.8036 106.157C59.1888 105.007 59.3815 103.665 59.5741 102.42C60.4408 98.2032 61.3076 93.9868 62.9448 89.9621C64.1005 86.8956 64.871 83.7334 65.6414 80.5711C66.123 78.7504 66.9897 77.6005 68.8196 77.2172C73.1534 76.1631 77.4872 75.7798 81.8211 76.3547C83.9398 76.6422 85.2881 77.7921 86.1549 79.6128C86.5401 80.3794 86.829 81.3377 87.0217 82.2001C87.6958 84.8833 88.37 87.6622 88.8515 90.3454C89.1404 91.7828 89.1404 93.2202 89.333 94.6576C89.7183 97.2449 90.0072 99.8322 90.6813 102.42C91.1629 103.953 91.2592 105.486 91.4518 107.115C91.5481 108.361 91.9333 109.607 92.1259 110.852L92.8964 114.685C93.089 116.027 93.2816 117.368 93.7632 118.614C94.5336 121.202 94.9188 123.98 95.4004 126.568C95.8819 128.963 96.3635 131.263 96.7487 133.563C97.0376 135.384 97.1339 137.3 97.3265 139.121V139.504C97.2302 141.229 96.5561 142.092 94.9188 142.379C93.1853 142.571 91.4518 143.05 89.9109 142.858C88.5626 142.954 87.3106 142.858 86.1549 142.571C85.2881 142.475 84.614 142.092 84.1324 141.517C83.2657 140.463 82.3989 139.504 82.11 138.259C81.8211 136.917 81.4358 135.767 81.2432 134.426C80.9543 133.276 80.2801 132.701 79.1245 132.605C77.0057 132.413 74.8869 132.317 72.6719 132.317C71.6125 132.317 70.4568 132.509 69.3011 132.701C67.4713 132.988 66.123 133.946 65.4488 135.671C64.9673 136.917 64.4857 138.067 64.1005 139.313C63.7153 140.463 63.1374 141.325 62.4633 142.283C61.9818 142.954 61.3076 143.242 60.6334 143.242ZM72.2866 115.164C73.4423 115.644 74.5017 115.644 75.6574 115.26C76.9094 114.781 77.6798 113.919 77.7761 112.673C77.9688 111.523 77.7761 110.565 77.5835 109.511C77.1983 107.594 76.3315 105.773 76.3315 103.857C76.3315 103.09 76.0426 102.324 75.7537 101.557C75.5611 100.886 75.0795 100.695 74.5017 101.078C73.6349 101.557 73.1534 102.324 72.8645 103.282C72.3829 105.486 71.8051 107.69 71.2273 109.894C71.0346 110.852 70.9383 111.811 70.842 112.577C70.842 114.206 71.0346 114.589 72.2866 115.164Z" fill="white"/>
<path d="M142.013 85.4582C143.265 87.7581 143.458 90.0579 142.591 92.4536C142.013 93.891 140.954 94.8492 139.606 95.52C138.835 95.9033 138.065 96.1908 137.294 96.6699C136.139 97.3407 134.983 97.3407 133.635 96.5741C131.997 95.6158 130.745 94.0826 129.493 92.6452C128.53 91.4953 127.278 90.7287 125.834 90.1537C124.582 89.6746 123.233 89.7704 122.078 90.1537C119.959 90.9204 118.033 92.2619 116.877 94.1785C115.914 95.8075 115.047 97.6282 114.758 99.5447C114.181 102.803 113.795 106.061 113.892 109.798C114.084 111.811 113.892 114.398 114.373 116.889C114.566 117.656 114.662 118.518 115.047 119.381C115.818 121.297 116.685 123.31 117.648 125.226C118.803 127.43 120.729 128.389 122.848 128.963C124.1 129.251 125.352 128.772 126.315 128.005C127.952 126.664 129.59 125.226 130.842 123.501C131.997 122.16 133.249 121.202 135.079 121.489C136.428 121.681 137.68 122.447 138.546 123.501L141.628 127.334C142.495 128.293 142.688 129.443 142.11 130.593C140.858 132.988 139.991 135.48 137.487 137.205C136.331 137.971 135.272 139.121 134.116 140.079C131.323 142.283 128.145 143.05 124.678 143.337C124.293 143.337 124.004 143.242 123.619 143.146C122.078 142.954 120.537 142.571 118.996 142.475C117.07 142.188 115.433 141.325 113.892 140.175C111.002 138.067 108.402 135.671 106.187 132.797C105.128 131.455 104.453 129.826 103.779 128.197C103.105 126.568 102.431 124.747 102.142 122.926C101.95 121.776 101.468 120.627 101.275 119.381C100.89 117.752 100.698 116.027 100.505 114.302C100.216 112.002 100.023 109.798 99.8308 107.498C99.7344 106.348 99.8307 105.199 100.023 104.049C100.312 102.994 100.023 101.845 100.216 100.695C100.505 99.2573 100.794 97.8199 101.275 96.4783C102.046 94.7534 102.72 92.9327 103.394 91.112C103.49 90.8245 103.683 90.6329 103.683 90.3454C103.972 88.6205 104.839 87.0873 105.705 85.6499C106.765 83.925 107.921 82.296 109.558 81.146C110.617 80.3794 111.388 79.4212 112.447 78.7504C114.277 77.4088 116.396 76.5464 118.803 76.6422C119.863 76.738 120.826 76.6422 121.789 76.4506C123.33 76.0672 124.774 75.8756 126.315 76.1631C126.893 76.2589 127.471 76.1631 128.049 76.1631C128.916 76.1631 129.782 76.3547 130.553 76.738C130.842 76.9297 131.131 77.1213 131.516 77.2172C133.731 77.6005 135.464 79.0379 137.391 80.092C137.583 80.1878 137.872 80.2836 137.968 80.4753C139.22 82.2001 140.954 83.5417 142.013 85.4582Z" fill="white"/>
<path d="M189.493 131.742C189.493 134.138 189.493 136.534 189.397 138.834C189.397 139.409 189.204 139.983 189.011 140.463C188.53 141.804 187.567 142.571 186.218 142.475C184.292 142.283 182.366 142.475 180.44 142.187C178.514 141.9 176.78 141.229 175.432 139.888C173.891 138.546 172.446 137.109 171.291 135.48C170.52 134.521 169.942 133.276 169.365 132.126C168.594 130.497 168.016 128.868 167.535 127.143C167.246 125.897 166.764 124.651 166.283 123.501C166.09 122.831 165.705 122.351 165.031 122.16C163.49 121.585 162.719 121.968 162.719 123.597C162.719 127.909 162.045 132.126 162.334 136.438C162.334 137.492 162.334 138.45 162.238 139.504C162.142 141.038 161.467 141.9 159.83 142.283C159.06 142.475 158.289 142.571 157.422 142.475C155.978 142.379 154.437 142.187 152.896 142.187C152.029 142.092 151.355 141.804 150.777 141.325C150.103 140.75 149.525 140.175 148.947 139.504C148.562 139.217 148.466 138.642 148.37 138.163C148.273 137.492 148.177 136.725 148.177 136.055V124.939H147.984C147.984 121.297 148.081 117.56 147.984 113.919C147.984 112.29 147.792 110.661 147.599 109.031C147.118 104.815 147.214 100.503 147.214 96.1908C147.214 94.2742 147.503 92.3577 147.599 90.4412C147.792 87.2789 148.177 84.1166 148.081 80.9543C147.984 79.9003 148.273 78.942 149.236 78.1754C150.007 77.5046 150.585 77.2171 151.548 77.5046C152.415 77.7921 153.378 77.6962 154.341 77.6962C156.074 77.5046 157.808 77.5046 159.541 77.5046C161.082 77.5046 161.756 77.9837 162.142 79.4211C162.816 81.6251 163.201 83.925 162.816 86.2248C162.43 89.0996 162.816 91.9744 163.201 94.7534C163.201 95.0408 163.297 95.3283 163.394 95.6158C163.779 96.0949 164.549 96.2866 165.127 95.9033C166.379 95.2325 167.438 94.3701 168.113 93.0285C169.846 89.8662 170.906 86.6081 171.965 83.2542C172.446 81.6251 173.024 80.0919 173.506 78.5587C173.698 77.6962 174.276 77.1213 175.143 77.0255C177.551 76.5463 180.055 75.8755 182.559 76.5463C183.329 76.738 184.196 76.6422 184.966 76.6422C185.737 76.6422 186.507 76.8338 187.278 77.1213C188.53 77.6004 189.011 78.5587 189.011 79.8044C189.011 82.8709 188.722 85.8415 187.567 88.8121L184.292 96.7657C183.714 98.2989 182.751 99.6405 181.788 100.982C180.344 103.09 178.995 105.294 177.647 107.498C176.78 109.031 177.069 111.81 178.225 112.96C180.247 115.164 181.21 117.848 181.981 120.626L183.618 125.514C183.907 126.568 184.485 127.43 185.737 127.622C186.411 127.813 186.989 128.293 187.663 128.676C188.915 129.251 189.493 130.401 189.493 131.742Z" fill="white"/>
<path d="M195.175 134.617C194.212 133.467 193.827 132.222 194.019 130.88C194.116 129.826 194.308 128.868 194.886 128.005C195.753 126.664 196.62 125.418 197.679 124.172C198.546 122.926 200.761 122.447 202.109 123.118L206.828 125.705C209.14 126.951 211.451 128.101 213.955 128.868C215.111 129.155 216.17 129.059 217.326 128.58C218.578 128.101 219.156 127.047 219.637 125.993C220.6 123.98 220.504 122.064 219.348 120.243C218.963 119.572 218.385 118.997 217.711 118.518C216.555 117.56 215.207 116.889 213.762 116.314C211.836 115.644 209.814 115.069 207.791 114.589C207.406 114.589 207.021 114.494 206.732 114.302C202.976 112.385 199.509 109.99 196.62 106.828C195.464 105.678 194.405 104.432 193.538 102.994C192.286 100.79 192.19 98.3948 191.997 95.9033C191.804 91.7828 193.538 88.4289 196.138 85.4582C197.198 84.2125 198.45 83.0626 199.413 81.721C200.665 80.1878 202.206 79.2295 203.939 78.4629C207.021 77.0255 210.295 76.2589 213.666 76.3547C214.244 76.3547 214.726 76.2589 215.207 76.1631C217.422 75.8756 219.445 76.1631 221.467 76.9297C224.067 77.8879 226.379 79.0379 228.594 80.4753C231.194 82.1043 233.12 84.3083 233.987 87.1831C234.276 88.0455 234.469 89.0038 234.469 89.9621C234.565 91.112 234.18 92.0703 233.602 92.9327C232.542 94.4659 231.387 95.8075 230.038 96.9574C228.305 98.3948 227.053 98.299 225.705 97.3407C225.223 97.0532 224.838 96.6699 224.356 96.2866C222.719 94.8492 221.178 93.4118 219.541 92.0703C219.156 91.687 218.77 91.3995 218.289 91.2078C216.459 90.6329 214.629 89.8663 212.607 90.0579H211.74C209.043 90.537 206.539 94.6576 207.502 97.3407C207.695 97.8198 207.984 98.2031 208.273 98.5865C209.429 99.7364 210.681 100.599 212.318 101.078C215.014 101.749 217.518 102.994 220.119 103.857C222.045 104.528 223.778 105.486 225.223 106.732C226.668 107.977 228.112 109.511 229.268 111.14C229.846 111.906 230.327 112.673 230.809 113.44C231.868 114.973 232.542 116.698 233.217 118.423C234.276 121.681 234.372 124.939 233.987 128.197C233.602 131.551 232.446 134.617 230.327 137.205C228.979 138.834 227.342 140.079 225.512 141.133C222.719 142.667 219.637 143.05 216.555 143.05C213.377 143.146 210.295 142.667 207.214 141.708C205.287 141.038 203.458 140.367 201.628 139.504C199.124 138.259 197.005 136.63 195.175 134.617Z" fill="white"/>
<path d="M288.978 105.218C288.593 104.47 288.092 103.818 287.167 103.703C287.052 103.723 286.994 103.627 286.917 103.608C286.089 103.32 285.395 103.55 284.856 104.144C284.355 104.7 284.009 105.371 283.662 106.042C283.431 106.54 283.315 107.019 283.277 107.537C283.219 109.645 283.373 111.753 283.643 113.842C283.7 114.436 283.893 114.992 283.989 115.567C284.047 116.238 284.297 116.813 284.548 117.426C284.644 117.732 284.837 118.001 284.972 118.307C285.318 118.921 285.973 119.093 286.551 119.4C287.322 119.821 287.976 119.668 288.612 119.132C288.708 119.055 288.862 118.921 288.959 118.748C289.209 118.403 289.46 118.02 289.748 117.694C289.999 117.349 290.076 116.985 290.153 116.544C290.384 115.567 290.346 114.57 290.442 113.574C290.577 112.481 290.48 111.389 290.442 110.296C290.288 108.495 289.748 106.827 288.978 105.218ZM288.978 105.218C288.593 104.47 288.092 103.818 287.167 103.703C287.052 103.723 286.994 103.627 286.917 103.608C286.089 103.32 285.395 103.55 284.856 104.144C284.355 104.7 284.009 105.371 283.662 106.042C283.431 106.54 283.315 107.019 283.277 107.537C283.219 109.645 283.373 111.753 283.643 113.842C283.7 114.436 283.893 114.992 283.989 115.567C284.047 116.238 284.297 116.813 284.548 117.426C284.644 117.732 284.837 118.001 284.972 118.307C285.318 118.921 285.973 119.093 286.551 119.4C287.322 119.821 287.976 119.668 288.612 119.132C288.708 119.055 288.862 118.921 288.959 118.748C289.209 118.403 289.46 118.02 289.748 117.694C289.999 117.349 290.076 116.985 290.153 116.544C290.384 115.567 290.346 114.57 290.442 113.574C290.577 112.481 290.48 111.389 290.442 110.296C290.288 108.495 289.748 106.827 288.978 105.218ZM348.284 94.9641C346.782 82.5641 335.552 73.6714 323.09 75.013L261.242 81.5867C248.722 82.9283 239.63 94.0441 240.863 106.502L242.596 123.923C243.829 136.419 254.982 145.56 267.54 144.391L329.851 138.565C342.679 137.358 351.982 125.878 350.461 113.152L348.284 94.9641ZM275.822 125.494C275.649 125.878 275.379 126.089 274.956 126.204C273.858 126.453 272.76 126.625 271.412 126.663C270.776 126.644 269.851 126.778 268.965 126.759C268.368 126.778 267.752 126.97 267.116 127.123C265.421 127.526 263.726 127.698 262.012 127.813C261.781 127.833 261.53 127.813 261.28 127.794C260.953 127.775 260.702 127.641 260.548 127.334C260.413 127.104 260.24 126.932 259.951 126.836C259.527 126.721 259.354 126.376 259.315 125.974C259.219 125.341 259.084 124.728 259.161 124.115C259.2 123.233 259.2 122.39 259.335 121.546C259.431 120.818 259.604 120.128 259.835 119.457C260.067 118.672 260.625 118.077 261.145 117.464C262.05 116.429 262.937 115.394 263.784 114.321C264.15 113.88 264.497 113.459 264.92 113.075C266.172 111.849 267.116 110.411 267.829 108.878C268.233 108.035 268.156 107.134 268.002 106.233C267.983 106.003 267.81 105.888 267.559 105.869C266.731 105.658 265.999 105.965 265.421 106.502C264.786 107.077 264.169 107.728 263.746 108.514C263.457 109.089 263.129 109.683 262.782 110.239C262.32 110.91 261.685 111.063 260.972 110.948C260.856 110.967 260.683 110.89 260.587 110.795C259.72 110.239 258.969 109.626 258.14 109.012C257.408 108.514 257.274 107.805 257.447 107C257.755 105.582 258.564 104.413 259.527 103.416C259.855 103.033 260.221 102.669 260.587 102.324C261.03 101.806 261.55 101.442 262.128 101.116C262.937 100.695 263.707 100.292 264.612 100.177C264.824 100.12 265.055 100.1 265.209 100.005C266.635 99.3721 269.408 99.9662 270.487 100.867C270.718 101.039 270.949 101.135 271.2 101.289C271.835 101.672 272.355 102.151 272.818 102.745C273.896 104.125 274.32 105.677 274.416 107.383C274.436 107.613 274.378 107.901 274.359 108.169C274.147 109.779 273.569 111.312 272.721 112.73C272.259 113.535 271.778 114.379 271.335 115.203C270.814 116.123 270.121 116.908 269.505 117.713C269.37 117.886 269.216 118.097 269.042 118.269C268.561 118.748 268.465 119.362 268.465 119.994C268.484 120.262 268.58 120.377 268.869 120.473C269.197 120.569 269.524 120.55 269.871 120.55C270.834 120.511 271.816 120.416 272.76 120.377C273.087 120.396 273.376 120.358 273.684 120.358C274.802 120.473 275.456 121.048 275.591 122.179C275.688 122.735 275.822 123.29 275.861 123.827C276.015 124.44 275.977 124.977 275.822 125.494ZM296.047 115.969C296.085 116.448 296.008 116.928 295.912 117.387C295.758 118.307 295.565 119.208 295.238 120.071C294.872 121.221 294.179 122.14 293.254 122.945C293.119 123.08 292.965 123.214 292.811 123.386C292.156 124.114 291.347 124.67 290.384 124.958C289.71 125.092 289.094 125.226 288.458 125.399L288.246 125.418C287.36 125.418 286.493 125.36 285.627 125.169C284.818 124.958 284.028 124.651 283.238 124.383C282.988 124.287 282.757 124.191 282.545 124.019C281.678 123.329 280.811 122.581 280.06 121.719C279.964 121.642 279.887 121.566 279.829 121.451C279.347 120.473 278.731 119.476 278.403 118.384C278.23 117.809 278.057 117.177 278.018 116.583C277.826 114.973 277.44 113.401 277.344 111.81C277.306 110.795 277.171 109.798 277.248 108.801C277.286 108.035 277.344 107.23 277.614 106.54C277.672 106.329 277.749 106.118 277.768 105.907C277.999 104.547 278.461 103.224 279.001 101.94C279.386 101.154 279.713 100.35 280.33 99.6979C280.407 99.6021 280.503 99.4488 280.619 99.3913C281.37 98.8738 282.121 98.3372 283.084 98.2605L286.936 97.9155C287.533 97.8197 288.689 97.9922 289.286 98.2605C290.211 98.7013 291.116 99.1038 291.829 99.8321C292.407 100.465 293.023 101.078 293.37 101.902C293.466 102.094 293.562 102.324 293.697 102.515C294.564 103.761 294.968 105.198 295.238 106.636C295.508 108.054 295.72 109.453 295.777 110.948C296.028 112.596 295.893 114.302 296.047 115.969ZM316.06 122.006C315.906 122.39 315.636 122.6 315.212 122.715C314.114 122.965 313.016 123.137 311.649 123.175C311.013 123.156 310.108 123.29 309.222 123.271C308.625 123.29 308.008 123.482 307.373 123.635C305.678 124.038 303.963 124.21 302.268 124.325C302.018 124.344 301.787 124.325 301.536 124.306C301.209 124.287 300.959 124.153 300.805 123.846C300.65 123.616 300.496 123.444 300.207 123.348C299.784 123.233 299.591 122.888 299.553 122.485C299.476 121.853 299.321 121.221 299.398 120.626C299.437 119.745 299.456 118.902 299.572 118.058C299.668 117.33 299.841 116.64 300.073 115.969C300.323 115.183 300.862 114.589 301.382 113.976C302.288 112.941 303.154 111.906 304.021 110.833C304.387 110.392 304.753 109.971 305.158 109.587C306.41 108.361 307.353 106.923 308.066 105.39C308.471 104.547 308.394 103.646 308.239 102.745C308.22 102.515 308.047 102.4 307.796 102.381C306.987 102.17 306.236 102.477 305.658 103.014C305.042 103.588 304.406 104.24 304.002 105.026C303.694 105.601 303.386 106.195 303.039 106.751C302.577 107.422 301.941 107.575 301.209 107.46C301.093 107.479 300.92 107.402 300.843 107.307C299.976 106.751 299.206 106.137 298.397 105.524C297.665 105.026 297.53 104.317 297.684 103.512C298.012 102.094 298.821 100.924 299.784 99.9279C300.111 99.5446 300.477 99.1804 300.843 98.8355C301.286 98.318 301.806 97.9539 302.384 97.6281C303.174 97.2064 303.963 96.804 304.869 96.689C305.061 96.6315 305.312 96.6123 305.447 96.5165C306.872 95.884 309.646 96.4781 310.724 97.3789C310.936 97.5514 311.186 97.6472 311.437 97.8005C312.072 98.1838 312.593 98.663 313.036 99.2571C314.114 100.637 314.538 102.189 314.654 103.895C314.673 104.125 314.615 104.413 314.596 104.681C314.384 106.291 313.787 107.824 312.959 109.242C312.516 110.047 312.034 110.89 311.572 111.715C311.052 112.634 310.377 113.42 309.761 114.225C309.607 114.398 309.472 114.609 309.28 114.781C308.798 115.26 308.702 115.873 308.721 116.506C308.74 116.774 308.817 116.889 309.106 116.985C309.434 117.081 309.761 117.062 310.108 117.062C311.071 117.023 312.053 116.928 313.016 116.889C313.344 116.908 313.613 116.87 313.941 116.87C315.077 116.985 315.732 117.56 315.867 118.691C315.963 119.247 316.079 119.802 316.117 120.339C316.233 120.933 316.214 121.47 316.06 122.006ZM332.258 107.153C332.22 107.153 332.22 107.153 332.22 107.153C332.278 108.706 332.374 110.239 332.47 111.753C332.47 112.232 332.509 112.711 332.605 113.19C332.817 114.8 332.894 116.391 333.029 117.982C333.048 118.748 333.029 119.457 333.106 120.205C333.164 120.761 332.913 121.086 332.316 121.221C331.835 121.355 331.334 121.431 330.814 121.47C330.024 121.489 329.215 121.604 328.425 121.508C327.828 121.451 327.135 120.876 327.039 120.243C326.865 119.266 326.692 118.269 326.519 117.253C326.442 116.774 326.326 116.276 326.114 115.816C325.825 115.183 325.324 114.838 324.669 114.743C324.304 114.666 323.899 114.666 323.533 114.647C322.531 114.609 321.491 114.666 320.528 114.915C319.816 115.107 319.238 114.896 318.718 114.474C318.159 114.034 317.716 113.612 317.427 112.999C317.177 112.462 316.849 111.964 316.599 111.427C316.387 110.91 316.291 110.373 316.503 109.875C316.946 108.476 317.003 107.077 317.254 105.658C317.389 104.892 317.523 104.068 317.639 103.301C317.774 102.439 317.812 101.576 317.947 100.733C318.063 99.9279 318.275 99.1804 318.621 98.4522C318.795 98.1264 318.872 97.6664 318.987 97.3022C319.007 97.1489 319.007 96.9764 319.064 96.8423C319.18 96.5165 319.122 96.0565 319.373 95.8649C319.777 95.6349 320.162 95.3282 320.682 95.2707L322.782 95.0791C323.148 95.0407 323.475 95.0982 323.783 95.0791C324.149 95.0407 324.4 95.1749 324.612 95.4432C325.016 95.9798 325.074 96.574 325.035 97.1681C324.958 98.0497 324.843 98.9696 324.727 99.8896C324.496 101.384 324.265 102.918 324.053 104.451C323.918 105.275 323.841 106.099 323.745 106.923C323.726 107.077 323.687 107.211 323.706 107.364C323.783 107.766 324.015 107.939 324.4 107.92C324.573 107.901 324.766 107.881 324.92 107.786C325.074 107.728 325.19 107.594 325.305 107.537C326.037 107.23 326.307 106.655 326.268 105.907C326.153 103.569 326.133 101.174 325.806 98.8163C325.767 98.4522 325.71 98.1072 325.633 97.8005C325.44 97.1298 325.44 96.4973 325.536 95.8457C325.594 95.3091 325.921 94.9066 326.461 94.8491C327.424 94.8108 328.348 94.4275 329.331 94.3891C330.178 94.3508 330.679 94.2741 330.968 95.5582C331.007 95.9223 331.084 96.3057 331.161 96.7081C331.353 98.6055 331.527 100.541 331.738 102.439C331.796 103.148 331.95 103.857 332.047 104.566L332.258 107.153ZM287.148 103.723C287.033 103.742 286.975 103.646 286.898 103.627C286.07 103.339 285.376 103.569 284.837 104.163C284.336 104.719 283.989 105.39 283.643 106.061C283.411 106.559 283.296 107.038 283.257 107.556C283.2 109.664 283.354 111.772 283.623 113.861C283.681 114.455 283.874 115.011 283.97 115.586C284.028 116.257 284.278 116.832 284.529 117.445C284.625 117.752 284.818 118.02 284.952 118.327C285.299 118.94 285.954 119.112 286.532 119.419C287.302 119.841 287.957 119.687 288.593 119.151C288.689 119.074 288.843 118.94 288.939 118.767C289.19 118.422 289.44 118.039 289.729 117.713C289.98 117.368 290.057 117.004 290.134 116.563C290.365 115.586 290.326 114.589 290.423 113.593C290.557 112.5 290.461 111.408 290.423 110.315C290.269 108.495 289.729 106.827 288.939 105.218C288.574 104.47 288.073 103.838 287.148 103.723ZM288.978 105.218C288.593 104.47 288.092 103.818 287.167 103.703C287.052 103.723 286.994 103.627 286.917 103.608C286.089 103.32 285.395 103.55 284.856 104.144C284.355 104.7 284.009 105.371 283.662 106.042C283.431 106.54 283.315 107.019 283.277 107.537C283.219 109.645 283.373 111.753 283.643 113.842C283.7 114.436 283.893 114.992 283.989 115.567C284.047 116.238 284.297 116.813 284.548 117.426C284.644 117.732 284.837 118.001 284.972 118.307C285.318 118.921 285.973 119.093 286.551 119.4C287.322 119.821 287.976 119.668 288.612 119.132C288.708 119.055 288.862 118.921 288.959 118.748C289.209 118.403 289.46 118.02 289.748 117.694C289.999 117.349 290.076 116.985 290.153 116.544C290.384 115.567 290.346 114.57 290.442 113.574C290.577 112.481 290.48 111.389 290.442 110.296C290.288 108.495 289.748 106.827 288.978 105.218ZM288.978 105.218C288.593 104.47 288.092 103.818 287.167 103.703C287.052 103.723 286.994 103.627 286.917 103.608C286.089 103.32 285.395 103.55 284.856 104.144C284.355 104.7 284.009 105.371 283.662 106.042C283.431 106.54 283.315 107.019 283.277 107.537C283.219 109.645 283.373 111.753 283.643 113.842C283.7 114.436 283.893 114.992 283.989 115.567C284.047 116.238 284.297 116.813 284.548 117.426C284.644 117.732 284.837 118.001 284.972 118.307C285.318 118.921 285.973 119.093 286.551 119.4C287.322 119.821 287.976 119.668 288.612 119.132C288.708 119.055 288.862 118.921 288.959 118.748C289.209 118.403 289.46 118.02 289.748 117.694C289.999 117.349 290.076 116.985 290.153 116.544C290.384 115.567 290.346 114.57 290.442 113.574C290.577 112.481 290.48 111.389 290.442 110.296C290.288 108.495 289.748 106.827 288.978 105.218Z" fill="white"/>
</g>
<defs>
<clipPath id="clip0_139_558">
<rect width="351" height="145" fill="white"/>
</clipPath>
</defs>
</svg>
