<svg width="1455" height="283" viewBox="0 0 1455 283" fill="none" xmlns="http://www.w3.org/2000/svg">
<path d="M0.652874 135.522C-1.6099 144.203 2.21941 153.543 8.89168 160.619C16.0281 168.167 26.1236 173.498 36.4511 177.932C112.457 210.672 204.94 203.029 288.257 204.539C350.802 205.671 413.406 206.803 475.951 207.936C719.518 207.936 963.723 216.521 1207.17 221.994C1210.89 222.088 1214.6 222.182 1218.26 222.23C1290.84 223.881 1369.34 224.069 1427.94 189.207C1439.54 182.273 1450.57 173.451 1453.93 162.082C1462.23 134.107 1420.22 128.446 1395.68 127.031C1270.07 119.908 1148.98 113.964 1028.07 82.6867C974.225 68.7701 935.467 45.796 891.082 18.6234C808.23 -32.0423 747.019 35.0874 667.01 50.1833C593.673 64.0055 512.677 27.5866 442.125 15.2268C391.822 6.40514 339.082 2.72551 289.069 12.6794C259.943 18.4347 233.834 28.6244 213.585 46.7867C194.381 63.9111 180.166 84.8567 157.016 98.9148C139.784 109.388 118.317 115.143 96.8497 115.049C82.4027 115.001 68.1299 112.407 53.6829 111.841C33.6081 111.039 7.55723 115.851 1.17505 133.871C1.00099 134.437 0.826933 134.956 0.652874 135.522Z" fill="#F1FBFE"/>
<path d="M0 142L1455 155V283H0V142Z" fill="#F1FBFE"/>
</svg>
