<svg width="430" height="84" viewBox="0 0 430 84" fill="none" xmlns="http://www.w3.org/2000/svg">
<path d="M0.195638 51.0985C-0.482416 54.3713 0.66506 57.8931 2.66445 60.5612C4.80293 63.4072 7.82809 65.4171 10.9228 67.0891C33.6984 79.4334 61.4117 76.5519 86.378 77.121C105.12 77.5479 123.88 77.9748 142.622 78.4017C215.608 78.4017 288.786 81.639 361.737 83.7023C362.85 83.7379 363.963 83.7734 365.058 83.7912C386.808 84.4138 410.331 84.4849 427.891 71.3402C431.368 68.7255 434.672 65.3993 435.68 61.1126C438.166 50.5648 425.579 48.4304 418.224 47.8968C380.584 45.2109 344.299 42.9697 308.067 31.1769C291.933 25.9296 280.319 17.2673 267.018 7.02192C242.191 -12.0815 223.849 13.2296 199.874 18.9215C177.898 24.1331 153.627 10.4015 132.486 5.74124C117.412 2.41505 101.608 1.02765 86.6214 4.78074C77.8936 6.95077 70.0699 10.7928 64.0022 17.6408C58.2475 24.0976 53.9879 31.9951 47.0509 37.2956C41.8872 41.2444 35.4544 43.4144 29.0216 43.3788C24.6925 43.3611 20.4155 42.3828 16.0864 42.1693C10.0709 41.8669 2.26457 43.6812 0.352112 50.4759C0.299954 50.6894 0.247796 50.885 0.195638 51.0985Z" fill="#F1FBFE"/>
</svg>
